<?xml version="1.0" encoding="utf-8"?>
<!-- Generator: Adobe Illustrator 19.0.0, SVG Export Plug-In . SVG Version: 6.00 Build 0)  -->
<svg version="1.1" id="圖層_2" xmlns="http://www.w3.org/2000/svg" xmlns:xlink="http://www.w3.org/1999/xlink" x="0px" y="0px"
	 viewBox="-119 86 360 70" style="enable-background:new -119 86 360 70;" xml:space="preserve">
<style type="text/css">
	.st0{fill:url(#SVGID_1_);}
	.st1{fill:url(#SVGID_2_);}
	.st2{fill:url(#SVGID_3_);}
	.st3{fill:url(#SVGID_4_);}
	.st4{fill:url(#SVGID_5_);}
	.st5{fill:url(#SVGID_6_);}
	.st6{fill:url(#SVGID_7_);}
	.st7{fill:url(#SVGID_8_);}
	.st8{fill:url(#SVGID_9_);}
	.st9{fill:url(#SVGID_10_);}
	.st10{fill:url(#SVGID_11_);}
	.st11{fill:url(#SVGID_12_);}
	.st12{fill:url(#SVGID_13_);}
	.st13{fill:url(#SVGID_14_);}
	.st14{fill:url(#SVGID_15_);}
	.st15{fill:url(#SVGID_16_);}
	.st16{fill:url(#SVGID_17_);}
	.st17{fill:url(#SVGID_18_);}
	.st18{fill:url(#SVGID_19_);}
	.st19{fill:url(#SVGID_20_);}
	.st20{fill:url(#SVGID_21_);}
	.st21{fill:url(#SVGID_22_);}
	.st22{fill:url(#SVGID_23_);}
	.st23{fill:url(#SVGID_24_);}
	.st24{fill:#4E63E2;}
	.st25{fill:#FFB339;}
	.st26{fill:#B0E7FF;}
	.st27{fill:#FF5E9D;}
</style>
<g>
	<g>
		<linearGradient id="SVGID_1_" gradientUnits="userSpaceOnUse" x1="149.788" y1="98.875" x2="149.788" y2="138.9031">
			<stop  offset="0" style="stop-color:#3652DD"/>
			<stop  offset="0.5" style="stop-color:#9E53B3"/>
			<stop  offset="1" style="stop-color:#F25693"/>
		</linearGradient>
		<path class="st0" d="M148.3,119.3c-0.5,1-1.1,1.9-1.4,2.8c-0.5,1.3-1.1,2.5-2.1,3.4c-0.6,0.5-1.3,0.9-2,1.3c-1.5,0.8-3.2,1.2-5,1
			c-1.1-0.1-2.2-0.5-3.3-0.9c-0.9-0.3-1.7-0.8-2.5-1.2c-0.1-0.1-0.2-0.2-0.3-0.3c1.4-0.8,2.8-1.4,4.5-1.3c2.7,0.1,5.3-0.3,7.5-2
			c0.4-0.3,0.7-0.6,1-1c0.6-0.8,1.2-1.6,1.9-2.3c0.5-0.6,0.6-1.1,0.1-1.7c-1.5-1.9-2.4-4.1-3-6.4c0-0.1,0-0.2,0-0.2
			c0.1,0,0.1-0.1,0.2-0.1c1.3,1.9,2.6,3.8,3.9,5.7c0.1,0,0.2,0,0.3,0c0.4-1,1-2,1.3-3.1c0.3-1.3,0.9-2.6,0.6-4
			c-0.1-0.6-0.5-0.7-0.9-0.5c-1,0.5-2.1,0.2-3.1,0.1c-1.6-0.2-3.1-0.5-4.7,0.4c-0.7,0.4-1.7,0.4-2.5,0.7c-0.4,0.1-0.9,0.4-1.3,0.6
			c-0.5-0.6-0.2-1.3,0.4-1.9c1-1.1,2.3-1.7,3.8-1.7c1.4,0.1,2.8,0.3,4.3,0.4c0.5,0,1,0,1.4-0.3c0.2-0.1-0.1-0.8-0.1-1.2
			c0-0.3-0.1-0.6,0-0.8c0.2-0.5,2.2-1,2.7-0.7c0.6,0.3,0.6,0.7,0.4,1.3c0,0.1-0.1,0.1-0.1,0.1c-0.6,1.4-0.5,1.6,1,1.6
			c1.6,0,3.2,0.1,4.7,0c0.9-0.1,1.8-0.5,2.6-0.8c0.8-0.3,1.3,0,1.8,0.6c-0.8,0.8-1.8,0.8-2.7,1c-2,0.4-4,0.7-6,0.6
			c-0.5,0-0.7,0.2-0.7,0.7c0.4,2.5-0.4,4.7-1.2,7c-0.3,1-0.2,1.7,0.6,2.4c2.2,1.8,4.5,3.5,7.3,4.3c0.5,0.2,1.1,0.3,1.6,0.5
			c1.4,0.5,2.8,0.7,4.4,0.6c1.2-0.1,2.4,0.2,3.6,0.5c0.6,0.1,0.8,0.4,0.3,1.1c-0.8,1.2-2,1.8-3.3,2.3c-0.7,0.3-1.2,0.9-1.9,1
			c-0.9,0.1-1.9-0.2-2.9-0.4c-0.6-0.1-1.1-0.5-1.6-0.8c-3.2-2.1-6.2-4.3-8.7-7.3C148.9,120,148.7,119.8,148.3,119.3z"/>
		<linearGradient id="SVGID_2_" gradientUnits="userSpaceOnUse" x1="-29.2479" y1="98.875" x2="-29.2479" y2="138.9031">
			<stop  offset="0" style="stop-color:#3652DD"/>
			<stop  offset="0.5" style="stop-color:#9E53B3"/>
			<stop  offset="1" style="stop-color:#F25693"/>
		</linearGradient>
		<path class="st1" d="M-27.5,105.4c0.5,0.7,0.8,1.2,1.3,1.8c0.2,0.3,0.5,0.6,0.8,0.7c2.3,0.8,2.6,3.4,2.3,5.3
			c-0.1,0.5-0.4,1-0.6,1.5c-0.1,0.2-0.2,0.5-0.2,0.7c0.4,1.4,0.7,2.9,0.1,4.6c0.8-0.1,1.5-0.2,2.1-0.3c0.7-0.2,1.4-0.5,2.1-0.5
			c0.5,0,1.1,0.1,1.6,0.3c0.2,0.1,0.4,0.5,0.3,0.7c-0.1,0.2-0.4,0.4-0.6,0.5c-2.5,0.4-5,0.7-7.4,1.1c-2.3,0.4-4.6,0.8-7,1.2
			c-0.6,0.1-1.3,0.1-2,0.1c-0.7-0.1-1.1-0.6-1.1-1.4c0-0.8,0.6-1.3,1.3-1.3c1.7-0.2,3.4-0.3,5.1-0.3c0.5,0,0.7-0.2,0.8-0.6
			s0.2-0.8,0.2-1.1c0-0.7-0.1-1.3-0.8-1.8c-1.2-0.8-1.8-1.9-1.6-3.4c0.4-1.8,0.8-3.6,1.3-5.4c0.1-0.5,0.3-0.9,0.5-1.3
			c0.4-1.1,0.2-1.4-1-1.7c-0.8-0.2-1.6-0.6-2.3-0.9c-0.2-0.1-0.2-0.3-0.4-0.5c0.2-0.1,0.4-0.2,0.6-0.2c0.4-0.1,0.8-0.2,1.1-0.1
			c0.8,0,1-0.3,0.9-1c-0.1-0.6-0.1-1.2-1-1.1c-1.7,0.1-3.4,0.3-5.1,0.3c-1.3,0-2.7-0.1-4-0.1c-0.5,0-1,0-1.4-0.1
			c-0.5-0.1-0.5-0.5-0.1-0.9c1-1,2.2-1.6,3.7-1.6c2.4,0,4.7,0.2,7.1,0.7c0.9,0.2,1.7,0.1,2.3-0.8s1.7-0.9,2.4-0.1
			c0.8,0.8,1.8,1.3,3.1,1.1c1.2-0.3,2.5-0.4,3.8-0.4c0.7,0,1.5,0.2,2.2,0.5c0.2,0.1,0.3,0.6,0.6,1.1c-1.3,0-2.4,0-3.5,0
			c-1.8,0.1-3.6,0.2-5.3,0.4c-0.3,0-0.7,0.4-0.8,0.7c-0.2,0.5-0.2,1.1-0.1,1.7c0,0.1,0.7,0.1,1.1,0.1c0.8,0.1,1.6,0.1,2.4,0.3
			c0.4,0.1,0.7,0.5,1.1,0.9C-23.6,105-25.5,105.8-27.5,105.4z M-27.4,109.9c0,1,0,1.9,0,2.8c0,0.3,0.2,0.6,0.4,0.8
			c0.9,0.5,2.1,0.1,2.6-0.8c0.3-0.6,0.1-2.1-0.4-2.2C-25.6,110.1-26.4,110.1-27.4,109.9z M-24.9,117.5
			C-25,117.5-25,117.5-24.9,117.5c-0.1-0.4,0-0.8-0.1-1.2c0-0.2-0.3-0.5-0.5-0.4c-0.2,0-0.6,0.2-0.6,0.4c-0.2,0.9-0.5,1.9-0.6,2.8
			c0,0.3,0.1,0.9,0.4,1c0.5,0.2,1.1,0.1,1.2-0.7C-25.1,118.8-25,118.1-24.9,117.5z"/>
		<linearGradient id="SVGID_3_" gradientUnits="userSpaceOnUse" x1="41.4074" y1="98.875" x2="41.4074" y2="138.9031">
			<stop  offset="0" style="stop-color:#3652DD"/>
			<stop  offset="0.5" style="stop-color:#9E53B3"/>
			<stop  offset="1" style="stop-color:#F25693"/>
		</linearGradient>
		<path class="st2" d="M42.3,109.3c0.1,0.5,0.3,1,0.4,1.5c0.2,1.6,0.3,1.7,1.9,1.8c0.2,0,0.4,0,0.5,0c0.9,0.1,1.8,0.2,2.1,1.4
			c0.1,0.7,0.7,1.3,0.9,2c0.2,0.5,0.3,1,0.4,1.5c0.1,0.9,0.1,1.8,0.2,2.7c0.1,2-0.2,3.9-0.9,5.8c-0.2,0.6-1,1-1.5,1.5
			c-1.3-0.6-1.4-0.9-1.2-2.3c0.3-1.9,0.6-3.9,0.7-5.8c0.1-1.7,0-3.3-0.1-5.1c-0.9,0.1-1.7,0.1-2.4,0.3c-0.2,0.1-0.5,0.5-0.5,0.8
			c-0.1,1-0.2,2.1-0.2,3.1c-0.1,2.7-0.1,5.4-0.2,8.1c0,0.7-0.3,1.4-0.7,2c-0.2,0.3-0.8,0.5-1.2,0.4c-0.2,0-0.6-0.6-0.5-1
			c0.1-2,0.4-4,0.5-6.1c0.2-2.2,0.3-4.4,0.3-6.5c0-0.4-0.6-0.9-1.1-1s-1,0.2-1.1,0.9c-0.4,2.3-0.9,4.5-1.3,6.8
			c-0.2,1.4-0.2,2.9-0.3,4.3c-0.1,0.9-0.2,1.8-1,2.3c-0.3,0.2-0.8,0.3-1,0.1c-0.9-0.5-1.1-1.9-0.7-2.9c0.3-0.7,0.3-1.4,0.4-2.1
			c0.5-2.7,0.9-5.5,1.5-8.2c0.2-1.1,0.9-2.2,1.3-3.2c0.2-0.5,0.6-0.6,1.1-0.3c0.2,0.2,0.5,0.3,0.8,0.4c0.6,0.2,1.1,0.1,1.1-0.6
			C40.5,110.6,41.2,109.9,42.3,109.3z"/>
		<linearGradient id="SVGID_4_" gradientUnits="userSpaceOnUse" x1="213.7501" y1="98.875" x2="213.7501" y2="138.9031">
			<stop  offset="0" style="stop-color:#3652DD"/>
			<stop  offset="0.5" style="stop-color:#9E53B3"/>
			<stop  offset="1" style="stop-color:#F25693"/>
		</linearGradient>
		<path class="st3" d="M201.1,130.5c0.6-0.5,1.2-0.9,1.7-1.4c1.8-1.7,4.1-2.8,5.5-5c1.8-2.8,3.3-5.8,4.3-9c0.3-1,0.6-1.9,0.8-2.9
			c0.4-2,0-4-0.3-6c-0.1-0.5-1.1-0.9-1.6-0.8c-0.2,0.1-0.4,0-0.6,0.1c0.1-0.2,0.1-0.5,0.2-0.7c0.9-0.9,1.9-1.4,3.1-1.2
			c0.9,0.1,1.8,0.2,2.7,0.2c2.5,0.2,5,0.3,7.5,0.5c1.2,0.1,2.1,1.1,2,2.3c-0.1,1-0.1,2-0.5,2.9c-0.3,0.8-0.9,1.4-2.1,1.4
			c-2.5,0-5,0.3-7.4,0.5c-0.3,0-0.8,0.3-0.8,0.6c-0.7,3.7-2.2,7.2-3.7,10.7c-0.7,1.7-1.5,3.4-2.6,4.9c-1.5,2.1-3.6,3.7-6.4,3.6
			c-0.6,0-1.2-0.2-1.8-0.3C201.2,130.7,201.1,130.6,201.1,130.5z M215.8,109.9c0.7-0.2,1.1-0.5,1.6-0.5c1.9-0.2,3.8-0.3,5.7-0.4
			c1.5-0.1,1.5-0.1,1.7-1.6c0-0.1,0-0.3,0-0.4c0-1.3-0.2-1.5-1.5-1.4c-1.6,0.1-3.2,0.1-4.8,0.2c-1.2,0.1-2.4,0.3-3.8,0.5
			C215.2,107.6,215.5,108.7,215.8,109.9z"/>
		<linearGradient id="SVGID_5_" gradientUnits="userSpaceOnUse" x1="67.1962" y1="98.875" x2="67.1962" y2="138.9031">
			<stop  offset="0" style="stop-color:#3652DD"/>
			<stop  offset="0.5" style="stop-color:#9E53B3"/>
			<stop  offset="1" style="stop-color:#F25693"/>
		</linearGradient>
		<path class="st4" d="M63.2,122.9c0-1.4,0-2.9,0-4.3c0-1.3,0.1-2.5,0.3-3.8c0.1-1,1-1.6,1.6-1.5c0.8,0.2,1.4,1.4,1.2,2.3
			c-0.4,1.8-0.8,3.6-1.1,5.5c-0.3,1.7,0.5,1.8,1.9,1.7c0.7-0.1,0.8-0.7,0.8-1.2c0-1.7,0-3.4,0-5.1c0-1.2,0-2.5,0-3.7
			c0-0.3-0.4-0.8-0.7-0.8c-1.5-0.3-3-0.4-4.5-0.6c-0.4,0-0.9,0-1.2-0.2c-0.4-0.3-0.8-0.7-1.1-1.1c0.3-0.3,0.6-0.7,1-0.9
			c1.5-1,3.1-0.3,4.5,0.2c1.1,0.4,2.2,0.3,3.3,0.2c0.4,0,0.8,0,1.3,0.1c0.3,0,0.6,0.2,0.8,0.2c1.3-0.2,1.8,0.7,2.7,1.5
			c-0.6,0.1-1,0.3-1.3,0.2c-0.9-0.1-1.4,0.4-1.6,1.2c-0.2,0.6-0.3,1.2-0.3,1.8c0,0.5,0.2,0.9,0.9,0.9c0.7,0,1.6,0,1.7,0.8
			c0.1,0.9-0.9,0.9-1.5,1.1c-0.2,0.1-0.3,0.1-0.5,0.1c-1.5,0.3-1.7,0.5-1.7,2.1c0,0.7,0.1,1.4,0.2,2.1c0.2,0.8,0.8,1,1.6,1
			c0.6,0,1.2,0.2,1.7,0.4c0.2,0.1,0.5,0.6,0.4,0.8c0,0.3-0.4,0.6-0.7,0.6c-1.8,0.2-3.6,0.3-5.3,0.5c-1,0.1-2,0.4-2.9,0.7
			c-1,0.4-2,0.3-3-0.1c-0.3-0.1-0.7-0.6-0.7-1c0-0.3,0.4-0.7,0.7-0.9C62.2,123.4,62.7,123.2,63.2,122.9z"/>
		<linearGradient id="SVGID_6_" gradientUnits="userSpaceOnUse" x1="3.8993" y1="98.875" x2="3.8993" y2="138.9031">
			<stop  offset="0" style="stop-color:#3652DD"/>
			<stop  offset="0.5" style="stop-color:#9E53B3"/>
			<stop  offset="1" style="stop-color:#F25693"/>
		</linearGradient>
		<path class="st5" d="M12.1,111.2c-4.1,1.1-8.6,0.3-12.8,1.5c0,0.1-0.1,0.2-0.1,0.3c-0.1-0.3-0.5-0.8-0.3-1
			c0.2-0.5,0.6-1.1,1.1-1.2c1.1-0.3,2.3-0.4,3.5-0.5c0.7-0.1,0.8-0.4,0.8-1s-0.3-0.9-0.9-0.9c-1.6,0-3.1-0.3-4.6,0.6
			c-0.7,0.4-1.4,0.1-2-0.4s-0.5-1.5,0.2-1.9c0.7-0.3,1.5-0.6,2.2-0.7c1.7-0.1,3.5,0,5.2,0c0.5-1.1,0.3-1.5-0.8-1.5
			c-2.3,0-4.6,0.1-6.9,0.2c-0.5,0-1,0.3-1.5,0.4c-0.1-0.5-1.1-0.6-0.7-1.6c0.4-0.9,1.1-1.2,1.9-1.2c3,0,6.1,0.1,9.1,0.1
			c1.5,0,3-0.2,4.5-0.3c1.3,0,2.9-0.6,3.4,1.6c-0.5,0.1-1.1,0.3-1.7,0.4c-0.7,0.1-1.4,0-2.1,0c-0.8,0.1-1.5,0.3-2.3,0.3
			c-0.7,0-0.9,0.4-0.9,0.9c0,0.6,0.4,0.7,0.9,0.6c1.3-0.1,2.6-0.2,3.8-0.4c0.6-0.1,0.9,0.1,1.1,0.7c0.1,0.3,0.3,0.6,0.5,1.1
			c-0.7,0.2-1.5,0.4-2.2,0.6c-1.1,0.2-2.3,0.3-3.4,0.4c-0.9,0-0.9,0.7-0.9,1.2c0,0.7,0.6,0.4,0.9,0.4c0.7,0,1.5-0.1,2.2-0.2
			C10.6,109.8,11.8,109.6,12.1,111.2z"/>
		<linearGradient id="SVGID_7_" gradientUnits="userSpaceOnUse" x1="122.3399" y1="98.875" x2="122.3399" y2="138.9031">
			<stop  offset="0" style="stop-color:#3652DD"/>
			<stop  offset="0.5" style="stop-color:#9E53B3"/>
			<stop  offset="1" style="stop-color:#F25693"/>
		</linearGradient>
		<path class="st6" d="M115.1,126.5c1.7,0,3.2-0.4,4.5-1.5c1.5-1.3,1.9-3,2.1-4.8c0.1-1.2,0.1-2.5,0.1-3.8c0-0.6-0.2-1.1-0.9-1.2
			c-2-0.2-3.9-0.4-5.9-0.5c-0.2,0-0.5,0.3-0.7,0.3c-0.5,0.1-1.1,0.2-1.4,0c-0.5-0.5-0.7-1.2-0.3-1.9c0.3-0.6,0.8-0.6,1.3-0.6
			c2,0.2,4,0.3,6,0.4c0.6,0,0.7-0.1,0.9-0.7c0.1-0.6-0.2-1.3,0.6-1.7c0.9-0.4,1.2-0.4,1.7,0.5c0.3,0.5,0.5,1.4,1,1.5
			c0.8,0.3,1.7,0.2,2.5,0.1c1.9-0.1,3.7-0.3,5.6-0.5c0,0.1,0.1,0.2,0.1,0.2c-0.7,1.1-1.4,2.4-2.7,3c-1.6,0.7-3.3,0.9-5,0.5
			c-0.9-0.3-1.2,0.1-1.2,1.1c0,1.8,0.2,3.7-0.1,5.5c-0.3,1.8-0.4,3.8-1.9,5.2c-1.1,1-2.4,1.3-3.8,1.2
			C116.1,128.9,115.5,128.2,115.1,126.5z"/>
		<linearGradient id="SVGID_8_" gradientUnits="userSpaceOnUse" x1="109.0963" y1="98.875" x2="109.0963" y2="138.9031">
			<stop  offset="0" style="stop-color:#3652DD"/>
			<stop  offset="0.5" style="stop-color:#9E53B3"/>
			<stop  offset="1" style="stop-color:#F25693"/>
		</linearGradient>
		<path class="st7" d="M95.3,129.1c1.9-0.9,3.3-2.5,4.3-4.4c0.8-1.6,1.5-3.4,2-5.2c0.6-1.9,1-3.8,1.3-5.7c0.2-0.8,0-1.7-0.1-2.6
			c0-0.2-0.3-0.5-0.6-0.7c-0.3-0.2-0.8-0.1-0.9-0.3c-0.2-0.5-0.3-1.1-0.2-1.6c0.2-2.1,0.7-1.7,2.7-1.8c1.6-0.1,3.1,0,4.7,0
			c0.5,0,1,0,1.5-0.2c0.7-0.2,0.7-0.8,0.8-1.3c0.1-0.6,0.2-1.1,1-1.3c0.9-0.2,1.4,0.1,1.4,1c0,1,0.6,1.2,1.3,1.4
			c2.2,0.6,4.5,0.7,6.8,0.7c0.5,0,1,0.1,1.6,0.2c-1,1.3-1.6,1.5-3,1.2c-0.4-0.1-0.8,0.1-1.1,0c-2-0.1-3.9-0.2-5.9-0.2
			c-1.8-0.1-3.5,0.4-5.2,0.8c-0.7,0.2-1.5,0.4-2.2,0.5c-0.6,0.1-0.9,0.4-1,0.9s-0.2,1-0.2,1.5c0,3.3-0.5,6.5-1.3,9.6
			c-0.3,1.3-0.6,2.7-1.1,4c-0.4,1-1,2-1.6,3c-0.7,1-1.7,1.1-2.9,0.9C96.7,129.2,96,129.2,95.3,129.1z"/>
		<linearGradient id="SVGID_9_" gradientUnits="userSpaceOnUse" x1="191.5509" y1="98.875" x2="191.5509" y2="138.9031">
			<stop  offset="0" style="stop-color:#3652DD"/>
			<stop  offset="0.5" style="stop-color:#9E53B3"/>
			<stop  offset="1" style="stop-color:#F25693"/>
		</linearGradient>
		<path class="st8" d="M193.2,128.1c-3.8,0.1-6.5-1.5-8.3-4.4c-1.3-2.1-1.8-4.6-1.5-7.1c0.2-1.5,0.4-3.1,0.7-4.6
			c0.2-0.8,0.6-1.7,0.9-2.5c0.8-1.9,2.3-2.6,4.3-2.7c0.6,0,1.1-0.2,1.7-0.3c0.6-0.2,0.8,0.2,0.9,0.7c0,0.2-0.1,0.5-0.1,0.7
			c-0.2,1.5-0.2,1.4-1.7,1.1c-1-0.2-2-0.4-3-0.3c-0.5,0-1.2,0.4-1.4,0.8c-1,2.6-1.7,5.3-0.9,8.1c0.2,0.6,0.5,1.3,0.9,1.8
			c1.7,1.7,3.5,3.2,6,3.7c1.4,0.3,2.7,0.3,4.1-0.2c1-0.3,2.2-0.3,3.4-0.4c0.6,0,0.7,0.6,0.5,0.8c-0.8,1-1.1,2.4-2.3,3.2
			C195.9,127.5,194.6,128.2,193.2,128.1z"/>
		<linearGradient id="SVGID_10_" gradientUnits="userSpaceOnUse" x1="-3.3037" y1="98.875" x2="-3.3037" y2="138.9031">
			<stop  offset="0" style="stop-color:#3652DD"/>
			<stop  offset="0.5" style="stop-color:#9E53B3"/>
			<stop  offset="1" style="stop-color:#F25693"/>
		</linearGradient>
		<path class="st9" d="M4.7,128c-0.9,0.7-2,0.7-3,0.8c-1.4,0.1-2.9,0.3-4.3,0.4c-0.3,0-0.7-0.2-0.8-0.4c-0.1-0.1,0.1-0.7,0.3-0.8
			c0.7-0.3,1.5-0.6,2.3-0.8c0.2-0.1,0.6-0.2,0.6-0.3c0.1-1.2,0.2-2.4,0.3-3.6c-0.1,0-0.2,0-0.2-0.1c-0.1,0.1-0.3,0.2-0.4,0.3
			c-0.6,1.2-1.6,2-2.7,2.8c-1.1,0.9-2.1,2-3.1,3.1c-0.5,0.5-1,0.7-1.7,0.5c-0.7-0.1-1.4-0.1-2.2-0.1c-1.2-0.1-2-0.8-2.4-2
			c1-0.2,2-0.6,3-0.7c2.2-0.2,4.1-0.8,5.9-2c1.4-0.9,2.7-1.9,3.6-3.3c0.2-0.3,0.3-0.6,0.3-1c0-0.2-0.2-0.5-0.3-0.5
			c-1.1,0-2.1,0-3.2,0c0,0.1-0.1,0.2-0.1,0.3c-0.2-0.4-0.6-1.1-0.4-1.2c0.3-0.4,0.9-0.6,1.4-0.7c0.6-0.1,1.2-0.1,1.7,0
			c1.1,0.1,1.6-0.4,1.5-1.5c0-0.2-0.3-0.4-0.6-0.5c-0.4-0.1-0.8,0-1.1,0c-0.4,0-0.8,0.1-1.2,0.1c-0.2-0.3-0.6-0.6-0.8-0.9
			c-0.2-0.7,0.4-1.4,1.3-1.4c1.9-0.1,3.7-0.2,5.6-0.2c0.3,0,0.7,0.4,0.9,0.7c0.2,0.4,0,0.9-0.5,1c-0.5,0.2-1.1,0.2-1.6,0.4
			c-0.6,0.1-1.2,1.3-0.8,1.8c0.1,0.1,0.3,0.2,0.5,0.2c0.5,0,0.9-0.1,1.4-0.3c0.8-0.3,1.4-0.2,1.7,0.8c0,0.2,0.2,0.3,0.4,0.6
			c-1.1,0.2-2,0.3-2.9,0.4c-1.4,0.2-1.5,0.3-1.5,1.7s-0.1,2.8-0.2,4.2c0,1.1,0.1,1.2,1.2,1C3.4,126.6,4,127.2,4.7,128z"/>
		<linearGradient id="SVGID_11_" gradientUnits="userSpaceOnUse" x1="18.7257" y1="98.875" x2="18.7257" y2="138.9031">
			<stop  offset="0" style="stop-color:#3652DD"/>
			<stop  offset="0.5" style="stop-color:#9E53B3"/>
			<stop  offset="1" style="stop-color:#F25693"/>
		</linearGradient>
		<path class="st10" d="M11.9,114.2c0.1,0.2,0.3,0.4,0.6,0.7c-1.1,0.2-2.2,0.4-3.2,0.5c-1.5,0.1-1.9,0.9-1.2,2.2
			c0.6,1.2,1.5,2.2,2.3,3.5c0.8-0.9,1.4-1.7,2-2.4c0.5,0.6,0.3,1.1,0,1.6c-0.2,0.4-0.4,0.8-0.6,1.1c-0.6,0.8-0.3,1.3,0.3,1.9
			c1.7,1.7,3.3,3.4,5.2,5c1.8,1.6,4,2.1,6.4,1.2c2.1-0.8,4.2-1,6.4-1.1c0.4,0.6,0,1-0.4,1.4c-1.9,1.6-4.1,2.5-6.5,3.1
			c-3.1,0.7-5.5-0.5-7.7-2.5c-1.7-1.5-3.1-3.1-4.2-5.1c-0.1-0.2-0.2-0.4-0.4-0.6c0-0.1-0.1-0.1-0.3-0.2c-1.3,1.6-0.8,3.9-1.9,5.6
			c-0.7-0.6-0.9-1.3-0.7-2c0.4-1.6,0.9-3.1,1.3-4.7c0.1-0.4,0.1-0.8,0-1.2c-0.5-1.3-1.1-2.6-1.7-4c-0.1-0.3-0.3-0.7-0.3-1
			c-0.3-1.3,0-1.9,1.3-2.3C9.6,114.7,10.8,114.5,11.9,114.2z"/>
		<linearGradient id="SVGID_12_" gradientUnits="userSpaceOnUse" x1="225.4" y1="98.875" x2="225.4" y2="138.9031">
			<stop  offset="0" style="stop-color:#3652DD"/>
			<stop  offset="0.5" style="stop-color:#9E53B3"/>
			<stop  offset="1" style="stop-color:#F25693"/>
		</linearGradient>
		<path class="st11" d="M221.4,129.2c1.1-0.3,2-0.6,2.9-0.9c1.3-0.4,2.2-1.4,3.2-2.4c2.3-2.5,3.8-5.3,3.9-8.7c0-0.8-0.3-1.3-1.1-1.4
			c-0.6-0.1-1.3-0.2-1.9-0.2c-2.5,0-5-0.1-7.5,0c-1.2,0-2.4,0.3-3.7,0.4c0-0.1-0.1-0.2-0.1-0.3c0.5-0.3,1-0.8,1.5-0.9
			c1.6-0.3,3.1-0.7,4.7-0.7c1.5-0.1,3,0.1,4.4,0.4c1.6,0.3,3.2,0.9,4.9,1.4c0.6,0.2,0.9,0.7,1,1.3c0.1,2.5,0.4,5-0.8,7.4
			c-0.3,0.7-0.7,1.3-1.2,1.9c-1,1.4-2,2.8-3.2,4.1c-1.3,1.4-3.1,1.4-4.6,0.2C223.1,130.3,222.3,129.8,221.4,129.2z"/>
		<linearGradient id="SVGID_13_" gradientUnits="userSpaceOnUse" x1="84.3821" y1="98.875" x2="84.3821" y2="138.9031">
			<stop  offset="0" style="stop-color:#3652DD"/>
			<stop  offset="0.5" style="stop-color:#9E53B3"/>
			<stop  offset="1" style="stop-color:#F25693"/>
		</linearGradient>
		<path class="st12" d="M74.9,124.6c1.7,0.2,3.9-1.3,4.3-2.8c0.1-0.3-0.2-0.9-0.5-1.2c-1-1.1-2.1-2.3-3.2-3.3
			c-0.5-0.5-0.4-1-0.1-1.7c0.8,0.8,1.5,1.5,2.2,2.1c0.7,0.7,1.5,1.3,2.2,2c0.3,0.3,0.7,0.4,0.9-0.1c0.2-0.7,0.4-1.3,0.5-2
			c0-0.7-0.4-1.1-1.1-1.3c-0.3-0.1-0.5-0.5-0.8-0.8c0.3-0.2,0.6-0.5,0.9-0.6c1.3-0.3,2.4,0.9,2.2,2.2c-0.2,1.2-0.4,2.3-0.5,3.5
			c0,0.4,0.3,1,0.7,1.2c2.1,1.7,4.4,3.1,7,4c1.2,0.4,2.4,0.8,3.6,1.2c0.8,0.3,1,0.9,0.6,1.7c-0.6,1-1.4,1.4-2.5,1.6
			c-1.4,0.2-2.8,0.1-3.9-0.9c-1-0.9-1.9-2-2.9-3c-1.2-1.2-2.4-2.3-3.6-3.3c-0.1-0.1-0.6,0-0.8,0.2c-0.5,0.6-1,1.3-1.5,1.9
			c-0.8,1-2,1.2-3.2,0.9C74.3,125.9,75,125.2,74.9,124.6z"/>
		<linearGradient id="SVGID_14_" gradientUnits="userSpaceOnUse" x1="-36.4473" y1="98.875" x2="-36.4473" y2="138.9031">
			<stop  offset="0" style="stop-color:#3652DD"/>
			<stop  offset="0.5" style="stop-color:#9E53B3"/>
			<stop  offset="1" style="stop-color:#F25693"/>
		</linearGradient>
		<path class="st13" d="M-31.3,126.9c-0.4,0.1-0.9,0.1-1.2,0.3c-0.6,0.5-1,0.1-1.3-0.3c-0.1-0.1,0.2-0.8,0.4-1
			c0.7-0.7,1.5-1.1,2.5-1.1c0.2,0,0.4,0,0.6-0.2c0.4-0.3,0.8-0.6,1.2-0.9c0.2,0.3,0.3,0.3,0.3,0.4c0,1.2,0.9,1.5,1.7,2
			c0.6,0.3,1.1,0.9,1,1.6c-0.4,2.7-1.3,5.2-3,7.3c-0.1,0.1-0.3,0.2-0.6,0.5c-0.1-0.6-0.2-1.1-0.2-1.5c1.4-1.4,2.1-3,2.5-4.8
			c0-0.3,0.1-0.5,0.1-0.8c0.1-0.6,0.2-1.4-0.6-1.6c-1.1-0.3-1.4,0-1.9,0.9c-0.8,1.4-1.8,2.7-2.7,4.1c-0.2,0.3-0.5,0.5-0.6,0.8
			c-1.2,2.6-3.7,4.2-5.6,6.2c-0.4,0.4-1.1,0.6-1.8,0.7c-1.1,0.2-2.1,0.5-3.2,0.4c-1.2,0-2.6,0.1-3.1-1.5c0.9-0.3,1.8-0.6,2.8-0.9
			c1.5-0.5,3-0.8,4.4-1.4c1.8-0.7,3.2-2.1,4.4-3.5c1.3-1.5,2.4-3.1,3.6-4.7c0.2-0.3,0.3-0.8,0.5-1.1
			C-31.1,127-31.2,126.9-31.3,126.9z"/>
		<linearGradient id="SVGID_15_" gradientUnits="userSpaceOnUse" x1="42.7463" y1="98.875" x2="42.7463" y2="138.9031">
			<stop  offset="0" style="stop-color:#3652DD"/>
			<stop  offset="0.5" style="stop-color:#9E53B3"/>
			<stop  offset="1" style="stop-color:#F25693"/>
		</linearGradient>
		<path class="st14" d="M28.1,110.9c0.2-0.6,0.2-1.3,0.5-1.7c0.3-0.5,0.9-1,1.4-1.2c2-0.7,4-0.9,6.1-0.6c0.9,0.1,1.8,0.1,2.7,0
			c0.3,0,0.7-0.3,0.8-0.6c0.2-0.6,0.2-1.4,0.4-2c0.2-0.4,0.5-0.8,0.9-1.1c0.1-0.1,0.6,0.1,0.8,0.2c1.1,0.4,1.1,1.3,0.9,2.3
			s0.4,1.7,1.4,1.7c3.7-0.1,7.5,0.3,11.1-1.1c0.7-0.3,1.5,0,2.3,0.1c-0.9,1.2-1.6,2.4-3.2,2.8c-3.7,1-7.1-0.3-10.5-1.2
			c-1.2-0.3-2.3-0.1-3.4,0.1c-0.6,0.1-1,0.1-1.4-0.3c-0.2-0.2-0.5-0.2-0.8-0.1c-1.9,0.3-3.8,0.6-5.6,1c-0.9,0.2-1.7,0.7-2.5,1.2
			C29.4,110.8,28.9,111.2,28.1,110.9z"/>
		<linearGradient id="SVGID_16_" gradientUnits="userSpaceOnUse" x1="172.5963" y1="98.875" x2="172.5963" y2="138.9031">
			<stop  offset="0" style="stop-color:#3652DD"/>
			<stop  offset="0.5" style="stop-color:#9E53B3"/>
			<stop  offset="1" style="stop-color:#F25693"/>
		</linearGradient>
		<path class="st15" d="M168.2,106.9c1.5-0.8,2.9-0.5,4.3-0.4s2.8-0.2,4-0.9c0.1-0.1,0.2-0.1,0.5-0.2c-0.1,0.9-0.3,1.6-0.9,2.2
			c-0.5,0.5-0.5,0.9-0.2,1.5c0.2,0.4,0.2,0.9,0.2,1.4c0.1,1.1,0.2,2.3,0.1,3.4c-0.2,2.4-0.5,4.7-0.8,7c-0.2,1.7-0.5,3.3-0.8,5
			c-0.1,0.6,0,1.3-0.9,1.5c-0.7,0.2-1.4,0-1.6-0.6s-0.1-1.4,0.1-2c0.2-1,0.7-2,0.9-3.1c0.8-3.7,1.6-7.4,1.7-11.2c0-0.2,0-0.4,0-0.6
			c-0.2-1.3-0.2-1.3-1.5-0.8c-1,0.4-2.1,0.5-3.2,0.3c-0.2,0-0.4-0.1-0.5-0.3C169.3,108.5,168.7,107.7,168.2,106.9z"/>
		<linearGradient id="SVGID_17_" gradientUnits="userSpaceOnUse" x1="220.3641" y1="98.875" x2="220.3641" y2="138.9031">
			<stop  offset="0" style="stop-color:#3652DD"/>
			<stop  offset="0.5" style="stop-color:#9E53B3"/>
			<stop  offset="1" style="stop-color:#F25693"/>
		</linearGradient>
		<path class="st16" d="M217.2,118.6c0.6,1,1.5,0.6,2.3,0.5c1.6-0.2,3.2-0.4,4.7,0.3c1.2,0.5,1.7,1.4,1.3,2.6
			c-0.3,0.8-0.7,1.6-1.2,2.3c-0.6,0.8-1.6,0.7-2.3,0.4c-1.1-0.5-2.1-0.1-3.2,0c-0.2,0-0.3,0.1-0.5,0.1c-0.7-0.1-1,0.2-1,0.7
			c-0.4,0.2-0.8,0.3-1.1,0.5c-0.6,0.4-1.1,0.2-1.1-0.5c0-1.1,0-2.2,0.3-3.3c0.3-1.2,1-2.4,1.5-3.6
			C217,118.7,217.1,118.6,217.2,118.6z M217.5,122.6c-0.1,0.9,0.2,1,0.8,1c1-0.1,2.1-0.2,3-0.4c0.6-0.2,1.3,0.6,1.6-0.2
			c0.3-0.6,0.4-1.2,0.6-1.8c0-0.1,0.1-0.2,0.1-0.3c0.2-0.6-0.1-0.9-0.7-0.9c-0.3,0-0.6,0.1-1,0.1c-1.1,0.1-2.2,0.2-3.4,0.2
			c-0.6,0-0.9,0.2-1,0.8C217.6,121.7,217.5,122.3,217.5,122.6z"/>
		<linearGradient id="SVGID_18_" gradientUnits="userSpaceOnUse" x1="108.4779" y1="98.875" x2="108.4779" y2="138.9031">
			<stop  offset="0" style="stop-color:#3652DD"/>
			<stop  offset="0.5" style="stop-color:#9E53B3"/>
			<stop  offset="1" style="stop-color:#F25693"/>
		</linearGradient>
		<path class="st17" d="M106,112.1c1.8,0.1,3.3-1,5.2-1.6c-0.1,0.7-0.1,1.3-0.2,1.8c-0.1,0.6-0.2,1.1-0.4,1.7c-0.7,2-0.8,4-1,6.1
			c-0.1,0.6-0.2,1.1-0.3,1.7c-0.3,1.7-0.5,3.4-0.9,5c-0.2,0.8-0.5,1.7-1.7,1.5c0-0.4-0.1-0.8,0-1.1c1.4-3.7,1.6-7.5,1.7-11.4
			c0-1.1-0.2-1.3-1.3-1.4c-1.1,0-1.6-0.7-1.2-1.7C105.9,112.6,106,112.3,106,112.1z"/>
		<linearGradient id="SVGID_19_" gradientUnits="userSpaceOnUse" x1="80.9236" y1="98.875" x2="80.9236" y2="138.9031">
			<stop  offset="0" style="stop-color:#3652DD"/>
			<stop  offset="0.5" style="stop-color:#9E53B3"/>
			<stop  offset="1" style="stop-color:#F25693"/>
		</linearGradient>
		<path class="st18" d="M75.7,113.3c-0.6-0.5-0.7-1-0.5-1.8c0.5-1.3,0.7-2.7,1.1-4.1c0.2-0.9,0.9-1.4,1.5-1.2c0.7,0.2,1,1.2,0.6,2.1
			c-0.3,0.6-0.4,1.3-0.6,2c1.3,0.3,2.5,0.7,3.7,0.7c1.1,0.1,2.2-0.3,3.3-0.4c0.5,0,1.1,0,1.7,0.2c0.5,0.2,0.2,1.4-0.5,1.5
			c-1.2,0.3-2.4,0.5-3.7,0.2c-1.7-0.4-3.4-1.1-5.1,0C76.8,112.9,76.2,113,75.7,113.3z"/>
		<linearGradient id="SVGID_20_" gradientUnits="userSpaceOnUse" x1="-20.928" y1="98.875" x2="-20.928" y2="138.9031">
			<stop  offset="0" style="stop-color:#3652DD"/>
			<stop  offset="0.5" style="stop-color:#9E53B3"/>
			<stop  offset="1" style="stop-color:#F25693"/>
		</linearGradient>
		<path class="st19" d="M-25.2,128.6c0.5-1.5,0.9-3,1.4-4.5c0.1-0.2,0.4-0.4,0.5-0.4c0.7,0.1,1.4,0.3,2,0.4c0.8,0.1,1.6,0.1,2.3,0.1
			c0.5,0,0.9-0.2,1.4-0.1c0.7,0.1,1.1,0.8,0.9,1.8c-0.1,0.7-0.3,1.4-0.7,2c-0.2,0.3-0.8,0.4-1.2,0.4c-1,0-1.9-0.3-2.8-0.3
			c-0.6,0-1.1,0.1-1.1,1c0,0.5-0.4,1.1-0.7,1.4c-0.5,0.5-1.7-0.2-1.9-1c0-0.2,0-0.5,0-0.7C-25.1,128.6-25.1,128.6-25.2,128.6z
			 M-22.9,125.1c0.1,0.4,0.2,0.6,0.2,0.9c0,0.8,0.4,1.1,1.2,0.9c0.7-0.1,1.5-0.1,2.2-0.2c0.3,0,0.7-0.2,0.8-0.4
			c0.2-0.3,0.2-0.7,0.2-1.1c0-0.1-0.3-0.4-0.5-0.4C-20.1,125-21.4,125.1-22.9,125.1z"/>
		<linearGradient id="SVGID_21_" gradientUnits="userSpaceOnUse" x1="115.315" y1="98.875" x2="115.315" y2="138.9031">
			<stop  offset="0" style="stop-color:#3652DD"/>
			<stop  offset="0.5" style="stop-color:#9E53B3"/>
			<stop  offset="1" style="stop-color:#F25693"/>
		</linearGradient>
		<path class="st20" d="M117.5,118.3c-0.7,0.7-1.2,1.6-2,2.1c-0.4,0.3-1.2,0.3-1.7,0.2s-0.8-0.6-0.6-1.2c0.4-1.3,0.8-1.6,2.2-1.4
			c0.7,0.1,1.3,0,2,0C117.4,118.1,117.5,118.2,117.5,118.3z"/>
		<linearGradient id="SVGID_22_" gradientUnits="userSpaceOnUse" x1="-1.1601" y1="98.875" x2="-1.1601" y2="138.9031">
			<stop  offset="0" style="stop-color:#3652DD"/>
			<stop  offset="0.5" style="stop-color:#9E53B3"/>
			<stop  offset="1" style="stop-color:#F25693"/>
		</linearGradient>
		<path class="st21" d="M-1.3,98.1c1.1,0,1.7,0.5,1.8,1.5c0,0.2-0.2,0.6-0.4,0.7c-0.4,0.1-0.9,0.1-1.4,0.2c-0.1,0-0.3-0.3-0.4-0.3
			c-0.7,0-1.2-0.1-1.1-0.9C-2.7,98.2-2.5,98.1-1.3,98.1C-1.4,98.1-1.3,98.1-1.3,98.1z"/>
		<linearGradient id="SVGID_23_" gradientUnits="userSpaceOnUse" x1="10.0836" y1="98.875" x2="10.0836" y2="138.9031">
			<stop  offset="0" style="stop-color:#3652DD"/>
			<stop  offset="0.5" style="stop-color:#9E53B3"/>
			<stop  offset="1" style="stop-color:#F25693"/>
		</linearGradient>
		<path class="st22" d="M10.9,99.1c-0.5,0-1.1,0.1-1.6,0.1s-0.9-0.6-0.7-1.1c0.3-0.7,1.9-0.9,2.4-0.4c0.1,0.1,0.3,0.3,0.4,0.4
			c0.1,0.2,0.3,0.5,0.2,0.6c-0.1,0.2-0.4,0.3-0.6,0.5C10.9,99.2,10.9,99.2,10.9,99.1z"/>
		<linearGradient id="SVGID_24_" gradientUnits="userSpaceOnUse" x1="3.6963" y1="123.4855" x2="7.1963" y2="123.4855">
			<stop  offset="0" style="stop-color:#3652DD"/>
			<stop  offset="0.5" style="stop-color:#9E53B3"/>
			<stop  offset="1" style="stop-color:#F25693"/>
		</linearGradient>
		<path class="st23" d="M3.7,122.3c1,0.5,1.9,0.8,2.8,1.3c0.3,0.2,0.5,0.6,0.7,0.9c-0.3,0.1-0.7,0.2-1,0.2
			C5.3,124.7,4,123.4,3.7,122.3z"/>
	</g>
	<g>
		<path class="st24" d="M-93,131.9c-0.1,0-0.2,0.1-0.4,0.1c-0.4,0-0.7-0.3-0.7-0.8s0.3-0.8,0.8-0.8c0.2,0,0.3,0,0.4,0.1v0.2
			c-0.1,0-0.2-0.1-0.3-0.1c-0.4,0-0.6,0.2-0.6,0.6s0.2,0.6,0.6,0.6c0.1,0,0.2,0,0.3-0.1L-93,131.9z"/>
		<path class="st24" d="M-91.7,131.7c0,0.1,0,0.2,0,0.3h-0.2v-0.2l0,0c-0.1,0.1-0.2,0.2-0.4,0.2s-0.4-0.1-0.4-0.5v-0.6h0.2v0.6
			c0,0.2,0.1,0.3,0.2,0.3c0.1,0,0.2-0.1,0.3-0.2v-0.1v-0.7h0.3L-91.7,131.7L-91.7,131.7z"/>
		<path class="st24" d="M-91.1,130.4h0.2v1.6h-0.2V130.4z"/>
		<path class="st24" d="M-90.1,130.6v0.3h0.3v0.1h-0.3v0.6c0,0.1,0,0.2,0.1,0.2s0.1,0,0.1,0v0.1c0,0-0.1,0-0.2,0
			c-0.1,0-0.2,0-0.2-0.1c-0.1-0.1-0.1-0.2-0.1-0.3V131h-0.2v-0.2h0.2v-0.3L-90.1,130.6z"/>
		<path class="st24" d="M-88.5,131.7c0,0.1,0,0.2,0,0.3h-0.2v-0.2l0,0c0,0.1-0.1,0.2-0.3,0.2s-0.4-0.1-0.4-0.5v-0.6h0.2v0.6
			c0,0.2,0.1,0.3,0.2,0.3c0.1,0,0.2-0.1,0.3-0.2v-0.1v-0.7h0.2V131.7z"/>
		<path class="st24" d="M-87.9,131.2c0-0.1,0-0.2,0-0.3h0.2v0.2l0,0c0-0.1,0.2-0.2,0.3-0.2c0,0,0,0,0.1,0v0.1c0,0,0,0-0.1,0
			s-0.2,0.1-0.3,0.3v0.1v0.6h-0.2V131.2z"/>
		<path class="st24" d="M-86.4,132L-86.4,132L-86.4,132c-0.1-0.1-0.2,0-0.3,0c-0.2,0-0.3-0.2-0.3-0.3c0-0.3,0.2-0.4,0.7-0.4l0,0
			c0-0.1,0-0.3-0.2-0.3c-0.1,0-0.2,0-0.3,0.1V131c0.1-0.1,0.2-0.1,0.4-0.1c0.3,0,0.4,0.2,0.4,0.4v0.4c0,0.1,0,0.2,0,0.3
			C-86,132-86.4,132-86.4,132z M-86.4,131.4c-0.2,0-0.5,0-0.5,0.2c0,0.1,0.1,0.2,0.2,0.2s0.2-0.1,0.3-0.2c0,0,0,0,0-0.1V131.4z"/>
		<path class="st24" d="M-85.7,130.4h0.2v1.6h-0.2V130.4z"/>
		<path class="st24" d="M-84,131.5l-0.1,0.5h-0.2l0.5-1.5h0.2l0.5,1.5h-0.2l-0.2-0.5H-84z M-83.5,131.3l-0.1-0.4
			c0-0.1-0.1-0.2-0.1-0.3l0,0c0,0.1,0,0.2-0.1,0.3l-0.1,0.4H-83.5z"/>
		<path class="st24" d="M-81.9,132v-1h-0.5v1h-0.2v-1h-0.2v-0.2h0.2l0,0c0-0.2,0-0.3,0.1-0.4s0.2-0.1,0.3-0.1s0.1,0,0.2,0v0.1h-0.1
			c-0.2,0-0.2,0.1-0.2,0.3l0,0h0.5v-0.1c0-0.2,0-0.3,0.1-0.4c0.1-0.1,0.2-0.1,0.3-0.1s0.1,0,0.2,0v0.2h-0.1c-0.2,0-0.2,0.1-0.2,0.3
			v0.1h0.3v0.3h-0.5v1H-81.9z"/>
		<path class="st24" d="M-80.5,132L-80.5,132L-80.5,132c-0.1-0.1-0.2,0-0.3,0c-0.2,0-0.3-0.2-0.3-0.3c0-0.3,0.2-0.4,0.7-0.4l0,0
			c0-0.1,0-0.3-0.2-0.3c-0.1,0-0.2,0-0.3,0.1V131c0.1-0.1,0.2-0.1,0.4-0.1c0.3,0,0.4,0.2,0.4,0.4v0.4c0,0.1,0,0.2,0,0.3
			C-80.1,132-80.5,132-80.5,132z M-80.5,131.4c-0.2,0-0.5,0-0.5,0.2c0,0.1,0.1,0.2,0.2,0.2c0.1,0,0.2-0.1,0.3-0.2c0,0,0,0,0-0.1
			V131.4z"/>
		<path class="st24" d="M-79.5,130.6C-79.5,130.7-79.5,130.7-79.5,130.6c-0.2,0.1-0.2,0-0.2,0C-79.7,130.5-79.6,130.5-79.5,130.6
			C-79.6,130.4-79.5,130.5-79.5,130.6z M-79.8,132v-1.1h0.2v1.1H-79.8z"/>
		<path class="st24" d="M-79,131.2c0-0.1,0-0.2,0-0.3h0.2v0.2l0,0c0-0.1,0.2-0.2,0.3-0.2c0,0,0,0,0.1,0v0.1c0,0,0,0-0.1,0
			s-0.2,0.1-0.3,0.3v0.1v0.6H-79V131.2z"/>
		<path class="st24" d="M-78.1,131.8c0.1,0,0.2,0.1,0.3,0.1s0.2-0.1,0.2-0.2c0-0.1-0.1-0.1-0.2-0.2c-0.2-0.1-0.3-0.2-0.3-0.3
			c0-0.2,0.1-0.3,0.4-0.3c0.1,0,0.2,0,0.3,0.1v0.1c0,0-0.1-0.1-0.2-0.1c-0.1,0-0.2,0.1-0.2,0.1c0,0.1,0.1,0.1,0.2,0.2
			c0.2,0.1,0.3,0.2,0.3,0.3c0,0.2-0.1,0.3-0.4,0.3C-77.8,131.9-77.9,131.9-78.1,131.8L-78.1,131.8z"/>
		<path class="st24" d="M-76.2,130.5c0.1,0,0.2,0,0.4,0s0.3,0,0.4,0.1c0.1,0.1,0.1,0.1,0.1,0.3c0,0.1-0.1,0.3-0.3,0.3l0,0
			c0.1,0,0.3,0.2,0.3,0.4c0,0.1-0.1,0.2-0.1,0.3c-0.1,0-0.3,0.1-0.5,0.1c-0.1,0-0.2,0-0.3,0L-76.2,130.5L-76.2,130.5z M-76,131.1
			h0.2c0.2,0,0.3-0.1,0.3-0.3c0-0.2-0.1-0.2-0.3-0.2c-0.1,0-0.1,0-0.2,0V131.1z M-76,131.8c0,0,0.1,0,0.2,0c0.2,0,0.4-0.1,0.4-0.3
			c0-0.2-0.2-0.3-0.4-0.3H-76V131.8z"/>
		<path class="st24" d="M-73.9,131.7c0,0.1,0,0.2,0,0.3h-0.2v-0.2l0,0c-0.1,0.1-0.2,0.2-0.4,0.2s-0.4-0.1-0.4-0.5v-0.6h0.2v0.6
			c0,0.2,0.1,0.3,0.2,0.3c0.1,0,0.2-0.1,0.3-0.2v-0.1v-0.7h0.2L-73.9,131.7L-73.9,131.7z"/>
		<path class="st24" d="M-73.3,131.2c0-0.1,0-0.2,0-0.3h0.2v0.2l0,0c0-0.1,0.2-0.2,0.3-0.2c0,0,0,0,0.1,0v0.1c0,0,0,0-0.1,0
			s-0.2,0.1-0.3,0.3v0.1v0.6h-0.2V131.2z"/>
		<path class="st24" d="M-72.3,131.5c0,0.3,0.2,0.4,0.4,0.4c0.1,0,0.2,0,0.3-0.1v0.1c-0.1,0-0.2,0.1-0.4,0.1c-0.3,0-0.5-0.2-0.5-0.5
			c0-0.3,0.2-0.6,0.5-0.6c0.4,0,0.4,0.3,0.4,0.5v0.1H-72.3z M-71.7,131.3c0-0.1-0.1-0.3-0.3-0.3s-0.3,0.2-0.3,0.3H-71.7z"/>
		<path class="st24" d="M-70.4,132L-70.4,132L-70.4,132c-0.1,0-0.2,0.1-0.3,0.1c-0.2,0-0.3-0.2-0.3-0.3c0-0.3,0.2-0.4,0.7-0.4l0,0
			c0-0.1,0-0.3-0.2-0.3c-0.1,0-0.2,0-0.3,0.1v-0.1c0.1-0.1,0.2-0.1,0.4-0.1c0.3,0,0.4,0.2,0.4,0.4v0.4c0,0.1,0,0.2,0,0.3L-70.4,132
			L-70.4,132L-70.4,132z M-70.5,131.4c-0.2,0-0.5,0-0.5,0.2c0,0.1,0.1,0.2,0.2,0.2c0.1,0,0.2-0.1,0.3-0.2c0,0,0,0,0-0.1V131.4z"/>
		<path class="st24" d="M-69.7,131.2c0-0.1,0-0.2,0-0.3h0.2v0.2l0,0c0-0.1,0.2-0.2,0.3-0.2c0,0,0,0,0.1,0v0.1c0,0,0,0-0.1,0
			s-0.2,0.1-0.3,0.3v0.1v0.6h-0.2V131.2z"/>
		<path class="st24" d="M-69,132.2c0-0.1,0.1-0.4,0.1-0.5h0.2c-0.1,0.2-0.2,0.4-0.2,0.5H-69z"/>
		<path class="st24" d="M-67.1,131.9c-0.1,0-0.2,0.1-0.4,0.1c-0.4,0-0.7-0.3-0.7-0.8s0.3-0.8,0.8-0.8c0.2,0,0.3,0,0.4,0.1v0.2
			c-0.1,0-0.2-0.1-0.3-0.1c-0.4,0-0.6,0.2-0.6,0.6s0.2,0.6,0.6,0.6c0.1,0,0.2,0,0.3-0.1L-67.1,131.9z"/>
		<path class="st24" d="M-66.7,130.4h0.2v0.6l0,0c0-0.1,0.1-0.1,0.1-0.1c0.1,0,0.1-0.1,0.2-0.1s0.4,0.1,0.4,0.5v0.7H-66v-0.6
			c0-0.2-0.1-0.3-0.3-0.3c-0.1,0-0.2,0.1-0.3,0.2v0.1v0.6h-0.1V130.4z"/>
		<path class="st24" d="M-65,130.6C-65,130.7-65,130.7-65,130.6c-0.2,0.1-0.2,0-0.2,0C-65.2,130.5-65.1,130.5-65,130.6
			C-65,130.4-65,130.5-65,130.6z M-65.2,132v-1.1h0.2v1.1H-65.2z"/>
		<path class="st24" d="M-63.8,132L-63.8,132L-63.8,132c-0.1,0-0.2,0.1-0.3,0.1c-0.2,0-0.3-0.2-0.3-0.3c0-0.3,0.2-0.4,0.7-0.4l0,0
			c0-0.1,0-0.3-0.2-0.3c-0.1,0-0.2,0-0.3,0.1v-0.1c0.1-0.1,0.2-0.1,0.4-0.1c0.3,0,0.4,0.2,0.4,0.4v0.4c0,0.1,0,0.2,0,0.3L-63.8,132
			L-63.8,132L-63.8,132z M-63.9,131.4c-0.2,0-0.5,0-0.5,0.2c0,0.1,0.1,0.2,0.2,0.2s0.2-0.1,0.3-0.2c0,0,0,0,0-0.1V131.4z"/>
		<path class="st24" d="M-63.1,130.9l0.2,0.6c0,0.1,0.1,0.2,0.1,0.2l0,0c0-0.1,0-0.1,0.1-0.2l0.2-0.6h0.2l-0.3,0.8
			c-0.1,0.4-0.2,0.6-0.4,0.7c-0.1,0.1-0.2,0.1-0.2,0.1v-0.2c0,0,0.1,0,0.2-0.1c0.1,0,0.1-0.1,0.2-0.2l0,0c0,0,0,0,0-0.1L-63.1,130.9
			L-63.1,130.9z"/>
		<path class="st24" d="M-61.6,130.6c0,0.1,0,0.1-0.1,0.1s-0.1-0.1-0.1-0.1c0-0.1,0.1-0.1,0.1-0.1
			C-61.7,130.4-61.6,130.5-61.6,130.6z M-61.8,132v-1.1h0.1v1.1H-61.8z"/>
		<path class="st24" d="M-59.3,131.9c-0.1,0-0.2,0.1-0.4,0.1c-0.4,0-0.7-0.3-0.7-0.8s0.3-0.8,0.8-0.8c0.2,0,0.3,0,0.4,0.1v0.2
			c-0.1,0-0.2-0.1-0.3-0.1c-0.4,0-0.6,0.2-0.6,0.6s0.2,0.6,0.6,0.6c0.1,0,0.2,0,0.3-0.1L-59.3,131.9z"/>
		<path class="st24" d="M-58.7,130.6c0,0.1,0,0.1-0.1,0.1s-0.1-0.1-0.1-0.1c0-0.1,0.1-0.1,0.1-0.1
			C-58.7,130.4-58.7,130.5-58.7,130.6z M-58.9,132v-1.1h0.2v1.1H-58.9z"/>
		<path class="st24" d="M-57.9,130.6v0.3h0.3v0.1h-0.3v0.6c0,0.1,0,0.2,0.1,0.2s0.1,0,0.1,0v0.1c0,0-0.1,0-0.2,0
			c-0.1,0-0.2,0-0.2-0.1c-0.1-0.1-0.1-0.2-0.1-0.3V131h-0.2v-0.2h0.2v-0.3L-57.9,130.6z"/>
		<path class="st24" d="M-57.1,130.9l0.2,0.6c0,0.1,0.1,0.2,0.1,0.2l0,0c0-0.1,0-0.1,0.1-0.2l0.2-0.6h0.2l-0.3,0.8
			c-0.1,0.4-0.2,0.6-0.4,0.7c-0.1,0.1-0.2,0.1-0.2,0.1v-0.2c0,0,0.1,0,0.2-0.1c0.1,0,0.1-0.1,0.2-0.2l0,0c0,0,0,0,0-0.1L-57.1,130.9
			L-57.1,130.9z"/>
	</g>
	<g>
		<path class="st25" d="M-63.6,126.9c-0.1,0.2-0.2,0.3-0.2,0.5c-0.1,0.2-0.2,0.4-0.4,0.6c-0.1,0.1-0.2,0.2-0.4,0.2
			c-0.3,0.1-0.6,0.2-0.9,0.2c-0.2,0-0.4-0.1-0.6-0.2c-0.1-0.1-0.3-0.1-0.4-0.2c0,0,0,0-0.1-0.1c0.2-0.1,0.5-0.2,0.8-0.2
			c0.5,0,0.9-0.1,1.3-0.4c0.1,0,0.1-0.1,0.2-0.2c0.1-0.1,0.2-0.3,0.3-0.4c0.1-0.1,0.1-0.2,0-0.3c-0.3-0.3-0.4-0.7-0.5-1.1l0,0l0,0
			c0.2,0.3,0.5,0.7,0.7,1c0,0,0,0,0.1,0c0.1-0.2,0.2-0.3,0.2-0.5c0.1-0.2,0.2-0.4,0.1-0.7c0-0.1-0.1-0.1-0.1-0.1
			c-0.2,0.1-0.4,0-0.5,0c-0.3,0-0.5-0.1-0.8,0.1c-0.1,0.1-0.3,0.1-0.4,0.1c-0.1,0-0.1,0.1-0.2,0.1c-0.1-0.1,0-0.2,0.1-0.3
			c0.2-0.2,0.4-0.3,0.7-0.3c0.2,0,0.5,0.1,0.7,0.1c0.1,0,0.2,0,0.2-0.1c0,0,0-0.1,0-0.2v-0.1c0-0.1,0.4-0.2,0.5-0.1
			c0.1,0,0.1,0.1,0.1,0.2l0,0c-0.1,0.2-0.1,0.3,0.2,0.3s0.5,0,0.8,0c0.2,0,0.3-0.1,0.5-0.1c0.1-0.1,0.2,0,0.3,0.1
			c-0.1,0.1-0.3,0.1-0.5,0.2c-0.3,0.1-0.7,0.1-1,0.1c-0.1,0-0.1,0-0.1,0.1c0.1,0.4-0.1,0.8-0.2,1.2c-0.1,0.2,0,0.3,0.1,0.4
			c0.4,0.3,0.8,0.6,1.3,0.7c0.1,0,0.2,0.1,0.3,0.1c0.2,0.1,0.5,0.1,0.8,0.1c0.2,0,0.4,0,0.6,0.1c0.1,0,0.1,0.1,0.1,0.2
			c-0.1,0.2-0.3,0.3-0.6,0.4c-0.1,0-0.2,0.2-0.3,0.2c-0.2,0-0.3,0-0.5-0.1c-0.1,0-0.2-0.1-0.3-0.1c-0.5-0.4-1.1-0.7-1.5-1.3
			C-63.5,127-63.6,127-63.6,126.9z"/>
		<path class="st25" d="M-93.9,124.5c0.1,0.1,0.1,0.2,0.2,0.3l0.1,0.1c0.4,0.1,0.5,0.6,0.4,0.9c0,0.1-0.1,0.2-0.1,0.3v0.1
			c0.1,0.2,0.1,0.5,0,0.8c0.1,0,0.3,0,0.4-0.1c0.1,0,0.2-0.1,0.4-0.1c0.1,0,0.2,0,0.3,0.1l0.1,0.1l-0.1,0.1
			c-0.4,0.1-0.9,0.1-1.3,0.2c-0.4,0.1-0.8,0.1-1.2,0.2c-0.1,0-0.2,0-0.3,0s-0.2-0.1-0.2-0.2c0-0.1,0.1-0.2,0.2-0.2
			c0.3,0,0.6-0.1,0.9-0.1c0.1,0,0.1,0,0.1-0.1s0-0.1,0-0.2c0-0.1,0-0.2-0.1-0.3c-0.2-0.1-0.3-0.3-0.3-0.6c0.1-0.3,0.1-0.6,0.2-0.9
			c0-0.1,0.1-0.1,0.1-0.2c0.1-0.2,0-0.2-0.2-0.3c-0.1,0-0.3-0.1-0.4-0.2c0,0,0-0.1-0.1-0.1h0.1c0.1,0,0.1,0,0.2,0
			c0.1,0,0.2-0.1,0.2-0.2s0-0.2-0.2-0.2c-0.3,0-0.6,0-0.9,0.1c-0.2,0-0.5,0-0.7,0c-0.1,0-0.2,0-0.2,0c-0.1,0-0.1-0.1,0-0.1
			c0.2-0.2,0.4-0.3,0.6-0.3c0.4,0,0.8,0,1.2,0.1c0.2,0,0.3,0,0.4-0.1c0.1-0.2,0.3-0.1,0.4,0s0.3,0.2,0.5,0.2s0.4-0.1,0.7-0.1
			c0.1,0,0.3,0,0.4,0.1c0,0,0.1,0.1,0.1,0.2c-0.2,0-0.4,0-0.6,0c-0.3,0-0.6,0-0.9,0.1l-0.1,0.1c0,0.1,0,0.2,0,0.3c0,0,0.1,0,0.2,0
			s0.3,0,0.4,0c0.1,0,0.1,0.1,0.2,0.2C-93.3,124.5-93.6,124.6-93.9,124.5z M-93.9,125.3c0,0.2,0,0.3,0,0.5c0,0,0,0.1,0.1,0.1
			c0.2,0.1,0.4,0,0.4-0.1s0-0.4-0.1-0.4C-93.6,125.3-93.8,125.3-93.9,125.3z M-93.5,126.6L-93.5,126.6c0-0.1,0-0.1,0-0.2l-0.1-0.1
			c0,0-0.1,0-0.1,0.1c0,0.2-0.1,0.3-0.1,0.5c0,0.1,0,0.2,0.1,0.2s0.2,0,0.2-0.1C-93.5,126.8-93.5,126.7-93.5,126.6z"/>
		<path class="st25" d="M-81.9,125.2c0,0.1,0.1,0.2,0.1,0.3c0,0.3,0.1,0.3,0.3,0.3h0.1c0.2,0,0.3,0,0.4,0.2c0,0.1,0.1,0.2,0.2,0.3
			c0,0.1,0.1,0.2,0.1,0.3c0,0.2,0,0.3,0,0.5c0,0.3,0,0.7-0.1,1c0,0.1-0.2,0.2-0.3,0.3c-0.2-0.1-0.2-0.2-0.2-0.4c0-0.3,0.1-0.7,0.1-1
			c0-0.3,0-0.6,0-0.9c-0.2,0-0.3,0-0.4,0l-0.1,0.1c0,0.2,0,0.4,0,0.5c0,0.5,0,0.9,0,1.4c0,0.1-0.1,0.2-0.1,0.3
			c0,0.1-0.1,0.1-0.2,0.1c0,0-0.1-0.1-0.1-0.2c0-0.3,0.1-0.7,0.1-1c0-0.4,0.1-0.8,0.1-1.1c0-0.1-0.1-0.2-0.2-0.2
			c-0.1,0-0.2,0-0.2,0.2c-0.1,0.4-0.2,0.8-0.2,1.2c0,0.2,0,0.5-0.1,0.7c0,0.2,0,0.3-0.2,0.4c0,0-0.1,0-0.2,0
			c-0.2-0.1-0.2-0.3-0.1-0.5c0-0.1,0.1-0.2,0.1-0.4c0.1-0.5,0.2-0.9,0.3-1.4c0-0.2,0.1-0.4,0.2-0.6c0-0.1,0.1-0.1,0.2,0
			c0,0,0.1,0,0.1,0.1c0.1,0,0.2,0,0.2-0.1C-82.2,125.4-82.1,125.3-81.9,125.2z"/>
		<path class="st25" d="M-54.6,128.9c0.1-0.1,0.2-0.1,0.3-0.2c0.3-0.3,0.7-0.5,0.9-0.9c0.3-0.5,0.6-1,0.7-1.6c0-0.2,0.1-0.3,0.1-0.5
			c0.1-0.3,0-0.7-0.1-1c0-0.1-0.2-0.2-0.3-0.1h-0.1v-0.1c0.1-0.2,0.3-0.2,0.5-0.2s0.3,0,0.5,0c0.4,0,0.9,0.1,1.3,0.1
			c0.2,0,0.4,0.2,0.4,0.4c0,0.2,0,0.3-0.1,0.5c-0.1,0.1-0.2,0.2-0.4,0.2c-0.4,0-0.9,0-1.3,0.1c-0.1,0-0.1,0.1-0.1,0.1
			c-0.1,0.6-0.4,1.2-0.6,1.8c-0.1,0.3-0.3,0.6-0.4,0.8c-0.1,0.4-0.4,0.7-0.9,0.7C-54.3,129-54.4,128.9-54.6,128.9
			C-54.5,128.9-54.5,128.9-54.6,128.9z M-52,125.3c0.1,0,0.2-0.1,0.3-0.1c0.3,0,0.7,0,1-0.1c0.3,0,0.3,0,0.3-0.3v-0.1
			c0-0.2,0-0.3-0.3-0.2c-0.3,0-0.6,0-0.8,0s-0.4,0-0.7,0.1C-52.1,124.9-52.1,125.1-52,125.3z"/>
		<path class="st25" d="M-78.3,127.5c0-0.2,0-0.5,0-0.7c0-0.2,0-0.4,0.1-0.7c0-0.2,0.2-0.3,0.3-0.3s0.2,0.2,0.2,0.4
			c-0.1,0.3-0.1,0.6-0.2,0.9c0,0.3,0.1,0.3,0.3,0.3c0.1,0,0.1-0.1,0.1-0.2c0-0.3,0-0.6,0-0.9c0-0.2,0-0.4,0-0.6
			c0-0.1-0.1-0.1-0.1-0.1c-0.3,0-0.5-0.1-0.8-0.1c-0.1,0-0.1,0-0.2,0c-0.1,0-0.1-0.1-0.2-0.2c0.1-0.1,0.1-0.1,0.2-0.2
			c0.3-0.2,0.5-0.1,0.8,0c0.2,0.1,0.4,0,0.6,0c0.1,0,0.1,0,0.2,0h0.1c0.2,0,0.3,0.1,0.5,0.3c-0.1,0-0.2,0.1-0.2,0
			c-0.2,0-0.2,0.1-0.3,0.2c0,0.1,0,0.2-0.1,0.3c0,0.1,0,0.2,0.1,0.1c0.1,0,0.3,0,0.3,0.1s-0.2,0.2-0.3,0.2H-77
			c-0.3,0.1-0.3,0.1-0.3,0.4c0,0.1,0,0.2,0,0.4c0,0.1,0.1,0.2,0.3,0.2c0.1,0,0.2,0,0.3,0.1l0.1,0.1l-0.1,0.1c-0.3,0-0.6,0.1-0.9,0.1
			c-0.2,0-0.3,0.1-0.5,0.1c-0.2,0.1-0.3,0-0.5,0c-0.1,0-0.1-0.1-0.1-0.2c0,0,0.1-0.1,0.1-0.2C-78.5,127.6-78.4,127.6-78.3,127.5z"/>
		<path class="st25" d="M-87.1,125.5c-0.7,0.2-1.5,0.1-2.2,0.3c0,0,0,0,0,0.1c0-0.1-0.1-0.1-0.1-0.2c0-0.1,0.1-0.2,0.2-0.2
			c0.2-0.1,0.4-0.1,0.6-0.1c0.1,0,0.1-0.1,0.1-0.2c0-0.1,0-0.1-0.1-0.1c-0.3,0-0.5,0-0.8,0.1c-0.1,0.1-0.2,0-0.3-0.1s-0.1-0.3,0-0.3
			c0.1-0.1,0.3-0.1,0.4-0.1c0.3,0,0.6,0,0.9,0c0.1-0.2,0.1-0.3-0.1-0.3c-0.4,0-0.8,0-1.2,0c-0.1,0-0.2,0-0.3,0.1
			c0-0.1-0.2-0.1-0.1-0.3c0.1-0.2,0.2-0.2,0.3-0.2c0.5,0,1.1,0,1.6,0c0.3,0,0.5,0,0.8-0.1c0.2,0,0.5-0.1,0.6,0.3
			c-0.1,0-0.2,0.1-0.3,0.1s-0.2,0-0.4,0c-0.1,0-0.3,0-0.4,0c-0.1,0-0.2,0.1-0.2,0.2s0.1,0.1,0.2,0.1c0.2,0,0.4,0,0.7-0.1
			c0.1,0,0.2,0,0.2,0.1s0,0.1,0.1,0.2c-0.1,0-0.3,0.1-0.4,0.1c-0.2,0-0.4,0.1-0.6,0.1s-0.2,0.1-0.2,0.2s0.1,0.1,0.2,0.1s0.3,0,0.4,0
			C-87.4,125.3-87.2,125.3-87.1,125.5z"/>
		<path class="st25" d="M-69.4,128.2c0.3,0,0.6-0.1,0.8-0.3c0.3-0.2,0.3-0.5,0.4-0.8c0-0.2,0-0.4,0-0.7c0-0.1,0-0.2-0.2-0.2
			c-0.3,0-0.7-0.1-1-0.1c0,0-0.1,0-0.1,0.1c-0.1,0-0.2,0-0.2,0c-0.1-0.1-0.1-0.2-0.1-0.3s0.1-0.1,0.2-0.1c0.3,0,0.7,0,1,0.1
			c0.1,0,0.1,0,0.1-0.1s0-0.2,0.1-0.3c0.2-0.1,0.2-0.1,0.3,0.1c0.1,0.1,0.1,0.2,0.2,0.3c0.1,0,0.3,0,0.4,0c0.3,0,0.6-0.1,1-0.1l0,0
			c-0.1,0.2-0.2,0.4-0.5,0.5s-0.6,0.2-0.9,0.1c-0.2,0-0.2,0-0.2,0.2c0,0.3,0,0.6,0,0.9c-0.1,0.3-0.1,0.7-0.3,0.9
			c-0.2,0.2-0.4,0.2-0.7,0.2C-69.2,128.6-69.3,128.5-69.4,128.2z"/>
		<path class="st25" d="M-72.8,128.6c0.3-0.2,0.6-0.4,0.7-0.8c0.1-0.3,0.3-0.6,0.4-0.9c0.1-0.3,0.2-0.7,0.2-1c0-0.1,0-0.3,0-0.4
			l-0.1-0.1c0,0-0.1,0-0.2-0.1c0-0.1,0-0.2,0-0.3c0-0.4,0.1-0.3,0.5-0.3c0.3,0,0.5,0,0.8,0c0.1,0,0.2,0,0.3,0s0.1-0.1,0.1-0.2
			c0-0.1,0-0.2,0.2-0.2s0.2,0,0.2,0.2c0,0.2,0.1,0.2,0.2,0.2c0.4,0.1,0.8,0.1,1.2,0.1c0.1,0,0.2,0,0.3,0c-0.2,0.2-0.3,0.3-0.5,0.2
			c-0.1,0-0.1,0-0.2,0c-0.3,0-0.7,0-1,0s-0.6,0.1-0.9,0.1c-0.1,0-0.3,0.1-0.4,0.1c-0.1,0-0.2,0.1-0.2,0.2c0,0.1,0,0.2,0,0.3
			c0,0.6-0.1,1.1-0.2,1.7c-0.1,0.2-0.1,0.5-0.2,0.7c-0.1,0.2-0.2,0.3-0.3,0.5s-0.3,0.2-0.5,0.2C-72.5,128.6-72.7,128.6-72.8,128.6z"
			/>
		<path class="st25" d="M-55.9,128.4c-0.7,0-1.1-0.3-1.4-0.8c-0.2-0.4-0.3-0.8-0.3-1.2c0-0.3,0.1-0.5,0.1-0.8c0-0.1,0.1-0.3,0.2-0.4
			c0.1-0.3,0.4-0.5,0.7-0.5c0.1,0,0.2,0,0.3-0.1c0.1,0,0.1,0,0.1,0.1v0.1c0,0.3,0,0.2-0.3,0.2c-0.2,0-0.3-0.1-0.5-0.1
			c-0.1,0-0.2,0.1-0.2,0.1c-0.2,0.5-0.3,0.9-0.2,1.4c0,0.1,0.1,0.2,0.2,0.3c0.3,0.3,0.6,0.5,1,0.6c0.2,0.1,0.5,0.1,0.7,0
			s0.4-0.1,0.6-0.1c0.1,0,0.1,0.1,0.1,0.1c-0.1,0.2-0.2,0.4-0.4,0.6C-55.4,128.3-55.7,128.5-55.9,128.4z"/>
		<path class="st25" d="M-88.4,128.4c-0.2,0.1-0.3,0.1-0.5,0.1s-0.5,0.1-0.7,0.1c0,0-0.1,0-0.1-0.1v-0.1c0.1-0.1,0.3-0.1,0.4-0.1
			h0.1c0-0.2,0-0.4,0.1-0.6l0,0c0,0-0.1,0-0.1,0.1c-0.1,0.2-0.3,0.3-0.5,0.5c-0.2,0.2-0.4,0.3-0.5,0.5c-0.1,0.1-0.2,0.1-0.3,0.1
			s-0.2,0-0.4,0s-0.3-0.1-0.4-0.4c0.2,0,0.3-0.1,0.5-0.1c0.4,0,0.7-0.1,1-0.3c0.2-0.2,0.5-0.3,0.6-0.6c0,0,0-0.1,0.1-0.2
			c0,0,0-0.1-0.1-0.1c-0.2,0-0.4,0-0.6,0l0,0c0-0.1-0.1-0.2-0.1-0.2c0.1-0.1,0.2-0.1,0.2-0.1c0.1,0,0.2,0,0.3,0
			c0.2,0,0.3-0.1,0.3-0.3l-0.1-0.1c-0.1,0-0.1,0-0.2,0c-0.1,0-0.1,0-0.2,0c0,0-0.1-0.1-0.1-0.2s0.1-0.2,0.2-0.2c0.3,0,0.6,0,1,0
			c0.1,0,0.1,0.1,0.1,0.1c0,0.1,0,0.2-0.1,0.2s-0.2,0-0.3,0.1c-0.1,0-0.2,0.2-0.1,0.3h0.1c0.1,0,0.2,0,0.2,0c0.1,0,0.2,0,0.3,0.1
			c0,0,0,0,0.1,0.1c-0.2,0-0.4,0-0.5,0c-0.2,0-0.3,0-0.3,0.3c0,0.2,0,0.5,0,0.7c0,0.2,0,0.2,0.2,0.2
			C-88.6,128.2-88.5,128.3-88.4,128.4z"/>
		<path class="st25" d="M-87.2,126c0,0,0,0.1,0.1,0.1c-0.2,0-0.4,0.1-0.6,0.1c-0.3,0-0.3,0.1-0.2,0.4c0.1,0.2,0.3,0.4,0.4,0.6
			c0.1-0.2,0.2-0.3,0.3-0.4c0.1,0.1,0,0.2,0,0.3s-0.1,0.1-0.1,0.2c-0.1,0.1-0.1,0.2,0,0.3c0.3,0.3,0.6,0.6,0.9,0.9
			c0.3,0.3,0.7,0.4,1.1,0.2c0.4-0.1,0.7-0.2,1.1-0.2c0.1,0.1,0,0.2-0.1,0.2c-0.3,0.3-0.7,0.4-1.1,0.5c-0.5,0.1-0.9-0.1-1.3-0.4
			c-0.3-0.3-0.5-0.5-0.7-0.9c0,0,0-0.1-0.1-0.1c0,0,0,0-0.1,0c-0.2,0.3-0.1,0.7-0.3,1c-0.1-0.1-0.2-0.2-0.1-0.3
			c0.1-0.3,0.2-0.5,0.2-0.8c0-0.1,0-0.1,0-0.2c-0.1-0.2-0.2-0.5-0.3-0.7c0-0.1,0-0.1-0.1-0.2c-0.1-0.2,0-0.3,0.2-0.4
			C-87.6,126.1-87.4,126.1-87.2,126z"/>
		<path class="st25" d="M-51,128.6c0.2-0.1,0.3-0.1,0.5-0.2s0.4-0.2,0.5-0.4c0.4-0.4,0.7-0.9,0.7-1.5c0-0.1-0.1-0.2-0.2-0.2
			c-0.1,0-0.2,0-0.3,0c-0.4,0-0.9,0-1.3,0c-0.2,0-0.4,0.1-0.6,0.1l0,0c0.1-0.1,0.2-0.1,0.3-0.2c0.3-0.1,0.5-0.1,0.8-0.1
			s0.5,0,0.8,0.1s0.6,0.2,0.8,0.2c0.1,0,0.2,0.1,0.2,0.2c0,0.4,0.1,0.9-0.1,1.3c-0.1,0.1-0.1,0.2-0.2,0.3c-0.2,0.2-0.3,0.5-0.5,0.7
			c-0.2,0.2-0.5,0.2-0.8,0C-50.8,128.8-50.9,128.7-51,128.6z"/>
		<path class="st25" d="M-76.3,127.8c0.3,0,0.7-0.2,0.7-0.5c0-0.1,0-0.2-0.1-0.2c-0.2-0.2-0.4-0.4-0.6-0.6c-0.1-0.1-0.1-0.2,0-0.3
			c0.1,0.1,0.3,0.3,0.4,0.4c0.1,0.1,0.3,0.2,0.4,0.3c0.1,0.1,0.1,0.1,0.2,0c0-0.1,0.1-0.2,0.1-0.3s-0.1-0.2-0.2-0.2
			c-0.1,0-0.1-0.1-0.1-0.1c0.1,0,0.1-0.1,0.2-0.1c0.2,0,0.4,0.2,0.4,0.4c0,0.2-0.1,0.4-0.1,0.6c0,0.1,0.1,0.2,0.1,0.2
			c0.4,0.3,0.8,0.5,1.2,0.7c0.2,0.1,0.4,0.1,0.6,0.2c0.1,0,0.2,0.2,0.1,0.3c-0.1,0.2-0.2,0.2-0.4,0.3c-0.2,0-0.5,0-0.7-0.1
			c-0.2-0.2-0.3-0.4-0.5-0.5c-0.2-0.2-0.4-0.4-0.6-0.6h-0.1c-0.1,0.1-0.2,0.2-0.3,0.3c-0.1,0.2-0.3,0.2-0.6,0.2
			C-76.4,128.1-76.3,127.9-76.3,127.8z"/>
		<path class="st25" d="M-94.6,128.2c-0.1,0-0.2,0-0.2,0.1c-0.1,0.1-0.2,0-0.2,0s0-0.1,0.1-0.2c0.1-0.1,0.3-0.2,0.4-0.2h0.1
			c0.1,0,0.1-0.1,0.2-0.2v0.1c0,0.2,0.1,0.3,0.3,0.3c0.1,0.1,0.2,0.1,0.2,0.3c-0.1,0.5-0.2,0.9-0.5,1.3c0,0,0,0-0.1,0.1
			c0-0.1,0-0.2,0-0.3c0.2-0.2,0.4-0.5,0.4-0.8v-0.1c0-0.1,0-0.2-0.1-0.3c-0.2-0.1-0.2,0-0.3,0.2c-0.1,0.2-0.3,0.5-0.5,0.7
			c0,0.1-0.1,0.1-0.1,0.1c-0.2,0.5-0.6,0.7-1,1.1c-0.1,0.1-0.2,0.1-0.3,0.1c-0.2,0-0.4,0.1-0.6,0.1c-0.2,0-0.4,0-0.5-0.3
			c0.2,0,0.3-0.1,0.5-0.2c0.3-0.1,0.5-0.1,0.8-0.2c0.3-0.1,0.5-0.4,0.8-0.6c0.2-0.3,0.4-0.5,0.6-0.8
			C-94.6,128.4-94.6,128.3-94.6,128.2C-94.6,128.3-94.6,128.2-94.6,128.2z"/>
		<path class="st25" d="M-84.4,125.5c0-0.1,0-0.2,0.1-0.3s0.1-0.2,0.2-0.2c0.3-0.1,0.7-0.2,1-0.1c0.2,0,0.3,0,0.5,0
			c0.1,0,0.1-0.1,0.1-0.1c0-0.1,0-0.2,0.1-0.3c0-0.1,0.1-0.1,0.2-0.2h0.1c0.2,0.1,0.2,0.2,0.2,0.4c0,0.2,0.1,0.3,0.2,0.3
			c0.6,0,1.3,0.1,1.9-0.2c0.1,0,0.3,0,0.4,0c-0.2,0.2-0.3,0.4-0.5,0.5c-0.6,0.2-1.2,0-1.8-0.2c-0.2-0.1-0.4,0-0.6,0
			c-0.1,0-0.2,0-0.2-0.1h-0.1c-0.3,0.1-0.6,0.1-1,0.2c-0.2,0-0.3,0.1-0.4,0.2C-84.1,125.5-84.2,125.5-84.4,125.5z"/>
		<path class="st25" d="M-60.2,124.8c0.3-0.1,0.5-0.1,0.7-0.1s0.5,0,0.7-0.2c0,0,0,0,0.1,0c0,0.2,0,0.3-0.1,0.4s-0.1,0.1,0,0.3
			c0,0.1,0,0.2,0,0.2c0,0.2,0,0.4,0,0.6c0,0.4-0.1,0.8-0.1,1.2c0,0.3-0.1,0.6-0.1,0.9c0,0.1,0,0.2-0.2,0.3c-0.1,0-0.2,0-0.3-0.1
			c0-0.1,0-0.2,0-0.3c0-0.2,0.1-0.4,0.2-0.5c0.1-0.6,0.3-1.3,0.3-1.9v-0.1c0-0.2,0-0.2-0.3-0.1c-0.2,0.1-0.4,0.1-0.5,0h-0.1
			C-60,125.1-60.1,124.9-60.2,124.8z"/>
		<path class="st25" d="M-51.8,126.8c0.1,0.2,0.3,0.1,0.4,0.1c0.3,0,0.5-0.1,0.8,0.1c0.2,0.1,0.3,0.2,0.2,0.5
			c-0.1,0.1-0.1,0.3-0.2,0.4c-0.1,0.1-0.3,0.1-0.4,0.1c-0.2-0.1-0.4,0-0.5,0h-0.1c-0.1,0-0.2,0-0.2,0.1c-0.1,0-0.1,0-0.2,0.1
			c-0.1,0.1-0.2,0-0.2-0.1c0-0.2,0-0.4,0-0.6C-52,127.2-51.9,127-51.8,126.8L-51.8,126.8z M-51.7,127.5c0,0.1,0,0.2,0.1,0.2
			c0.2,0,0.4,0,0.5-0.1c0.1,0,0.2,0.1,0.3,0c0-0.1,0.1-0.2,0.1-0.3l0,0c0-0.1,0-0.2-0.1-0.1c-0.1,0-0.1,0-0.2,0c-0.2,0-0.4,0-0.6,0
			c-0.1,0-0.2,0-0.2,0.1C-51.7,127.3-51.7,127.4-51.7,127.5z"/>
		<path class="st25" d="M-70.9,125.7c0.3,0,0.6-0.2,0.9-0.3c0,0.1,0,0.2,0,0.3s0,0.2-0.1,0.3c-0.1,0.3-0.1,0.7-0.2,1
			c0,0.1,0,0.2-0.1,0.3c-0.1,0.3-0.1,0.6-0.2,0.9c0,0.1-0.1,0.3-0.3,0.3c0-0.1,0-0.1,0-0.2c0.2-0.6,0.3-1.3,0.3-2
			c0-0.2,0-0.2-0.2-0.2s-0.3-0.1-0.2-0.3L-70.9,125.7z"/>
		<path class="st25" d="M-76.2,125.9c-0.1-0.1-0.1-0.2-0.1-0.3c0.1-0.2,0.1-0.5,0.2-0.7c0-0.2,0.1-0.2,0.3-0.2
			c0.1,0,0.2,0.2,0.1,0.4c0,0.1-0.1,0.2-0.1,0.3c0.2,0,0.4,0.1,0.6,0.1s0.4-0.1,0.6-0.1c0.1,0,0.2,0,0.3,0s0,0.2-0.1,0.3
			c-0.2,0.1-0.4,0.1-0.6,0c-0.3-0.1-0.6-0.2-0.9,0C-76,125.8-76.1,125.8-76.2,125.9z"/>
		<path class="st25" d="M-93.6,128.5c0.1-0.3,0.2-0.5,0.2-0.8l0.1-0.1c0.1,0,0.2,0.1,0.4,0.1c0.1,0,0.3,0,0.4,0c0.1,0,0.2,0,0.2,0
			c0.1,0,0.2,0.1,0.2,0.3c0,0.1-0.1,0.2-0.1,0.3c0,0.1-0.1,0.1-0.2,0.1c-0.2,0-0.3,0-0.5-0.1c-0.1,0-0.2,0-0.2,0.2
			c0,0.1-0.1,0.2-0.1,0.2C-93.3,128.8-93.5,128.7-93.6,128.5C-93.5,128.6-93.5,128.6-93.6,128.5C-93.5,128.5-93.5,128.5-93.6,128.5z
			 M-93.2,127.9c0,0.1,0,0.1,0,0.2c0,0.1,0.1,0.2,0.2,0.2c0.1,0,0.3,0,0.4,0c0.1,0,0.1,0,0.1-0.1c0,0,0-0.1,0-0.2l-0.1-0.1
			C-92.7,127.9-92.9,127.9-93.2,127.9z"/>
		<path class="st25" d="M-69,126.7c-0.1,0.1-0.2,0.3-0.3,0.4c-0.1,0.1-0.2,0-0.3,0s-0.1-0.1-0.1-0.2c0.1-0.2,0.1-0.3,0.4-0.2
			C-69.2,126.7-69.1,126.7-69,126.7L-69,126.7z"/>
		<path class="st25" d="M-89.4,123.3c0.2,0,0.3,0.1,0.3,0.3c0,0,0,0.1-0.1,0.1s-0.2,0-0.2,0s0,0-0.1,0s-0.2,0-0.2-0.2
			S-89.6,123.3-89.4,123.3L-89.4,123.3z"/>
		<path class="st25" d="M-87.3,123.4c-0.1,0-0.2,0-0.3,0s-0.2-0.1-0.1-0.2c0.1-0.1,0.3-0.2,0.4-0.1c0,0,0.1,0,0.1,0.1L-87.3,123.4
			C-87.2,123.4-87.3,123.4-87.3,123.4C-87.3,123.5-87.3,123.5-87.3,123.4z"/>
		<path class="st25" d="M-88.6,127.5c0.2,0.1,0.3,0.1,0.5,0.2c0.1,0,0.1,0.1,0.1,0.2c-0.1,0-0.1,0-0.2,0
			C-88.3,127.8-88.5,127.6-88.6,127.5z"/>
	</g>
	<path class="st26" d="M-85.2,149c12.5,0,21.3-6.8,25.5-14.3c0.4-1-0.5-1.7-1.3-1c-0.7,0.8-9.1,13-23.6,9.3
		c-15-3.9-17.3-17.7-16.3-22.7c1.2-3.7,5.2-3.9,7.3-7.3c2.1-3.5,3.7-6.1,3.9-6.1c0.2,0.1,11.9,9.9,16.1,10.7
		c4.1,0.8,13.9-1.4,16.3-3.1c0-2.6-6.5-20.9-26.7-20.9c-16.8,0-27.7,14.9-27.7,28.3C-111.7,137.3-97.9,149-85.2,149z"/>
	<g>
		<g>
			<path class="st24" d="M-84.3,93.7c-0.2,0.6-2.2,8.4-7.9,11.3c-2.5,1.1-5,1.6-6.1,1.6s-1.7,0.3-2.2,0.7c-0.6,0.4-0.1,0.9,0.7,1.9
				c0.8,1.1,3.8,2.4,7.3,0.6c3.5-1.9,6.6-5.5,8.2-9.4c0.6-1.6,0.5-2.5,1.8,0.2c1.2,2.2,4,5.5,7.7,7.9s6,2.7,8.1,2.6
				c2.1-0.1,2.5-0.7,3.5-1c-1,0.1-3,0.2-3.6,0.2c-0.7-0.1,0.6-0.3,1.2-0.7c0.5-0.3,1-0.2,1.4,0.3c0.3,0.1,0.9-0.1,1.3-0.5
				c0.4-0.4,0.8-0.5,0.9-0.2c0.1,0.2,0.1,0.6,0.7,0c0.6-0.7,0.4-0.8,1.1-1.2c0.7-0.3,1.3-0.1,2.1-0.3c0.8-0.2,0.9-0.4,1.7-1
				c0.9-0.6,1.5-1.1,1.9-1.4c0.2-0.3-0.3,0-1,0c-0.7,0.1-0.5,0.4-0.8,0.3s-0.5-0.5,0.3-0.7c0.8-0.2,0.6-0.1,1-0.2s0.7,0.2,1.2-0.1
				c0.5-0.3,0-0.3-0.7-0.3s-1.3,0.1-2.1,0.5c-0.7,0.4-2.9,1-3.4,1.2c-0.5,0.1-0.5,0.1-1,0.1c-0.6,0-0.6,0.5-1.1,0.5
				c-0.6,0-0.8-0.3-1.3-0.3c-0.5,0.1-0.7,0.5-1.1,0.3c-0.4-0.2-1.6-0.1-4.4-0.5c-2.8-0.4-6.6-1.3-9.4-4.4s-4.4-7-4.9-8.3
				C-83.4,92.7-84.1,93.1-84.3,93.7z"/>
			<path class="st24" d="M-55,106.2c0.4,0.1,0.6,0.3,1.3-0.3s1-1.3,1.2-1.1c0.2,0.1,0.5,0.1,0.3,0.4s-0.6,0.4-1.1,0.9
				c-0.5,0.4-1.2,0.7-1.6,1c-0.5,0.3-1,0.5-1.3,0.7c-0.3,0.2,0.2-0.5,0.5-0.9C-55.5,106.4-55.4,106.1-55,106.2z"/>
			<path class="st24" d="M-51.4,104.6c-0.2,0.4,1.5-1.3,2-1.6c-0.2-0.1-0.6,0-1,0.3C-50.9,103.5-51.2,104-51.4,104.6z"/>
			<path class="st24" d="M-51.7,102.7c-0.3,0.1-0.6,0-0.7,0.2c-0.1,0.1,0.3,0.3,0.5,0.2C-51.7,103-51.7,102.7-51.7,102.7z"/>
			<path class="st24" d="M-50,102.3c0.1,0.4,0.1-0.4,0.7-0.4c0.5,0,0.7-0.1,1.1-0.3c0.4-0.2,0.2-0.4,0.2-0.5
				c-0.1-0.1-0.2,0.1-0.4,0.2c-0.2,0.2-0.4,0-0.8,0.2C-49.6,101.7-50.1,101.9-50,102.3z"/>
			<path class="st24" d="M-47.1,101c0,0.2,0.3-0.2,0.3-0.3C-46.9,100.6-47.2,100.7-47.1,101z"/>
		</g>
	</g>
	<g>
		<g>
			<path class="st25" d="M-89.7,103.3c-0.2,0.6-2.4,8.4-8.6,11.3c-2.8,1.1-5.5,1.6-6.7,1.6s-1.8,0.3-2.4,0.7
				c-0.6,0.4-0.1,0.9,0.8,1.9c0.9,1.1,4.1,2.4,7.9,0.6c3.8-1.9,7.2-5.5,9-9.4c0.7-1.6,0.5-2.5,1.9,0.2c1.3,2.2,4.4,5.5,8.4,7.9
				s6.6,2.7,8.9,2.6c2.3-0.1,2.7-0.7,3.8-1c-1.1,0.1-3.2,0.2-4,0.2c-0.7-0.1,0.7-0.3,1.3-0.7c0.6-0.3,1.1-0.2,1.5,0.3
				c0.3,0.1,1-0.1,1.4-0.5c0.5-0.4,0.9-0.5,1-0.2c0.1,0.2,0.1,0.6,0.7,0c0.6-0.7,0.4-0.8,1.2-1.2c0.7-0.3,1.4-0.1,2.2-0.3
				c0.9-0.2,1-0.4,1.9-1c1-0.6,1.6-1.1,2-1.4c0.2-0.3-0.4,0-1.1,0c-0.7,0.1-0.6,0.4-0.9,0.3c-0.3-0.1-0.5-0.5,0.4-0.7
				c0.9-0.2,0.7-0.1,1.1-0.2c0.4-0.1,0.7,0.2,1.3-0.1c0.6-0.3,0-0.3-0.8-0.3c-0.7,0-1.4,0.1-2.2,0.5s-3.2,1-3.7,1.2
				c-0.5,0.1-0.5,0.1-1.1,0.1c-0.6,0-0.6,0.5-1.2,0.5s-0.9-0.3-1.5-0.3c-0.5,0.1-0.7,0.5-1.2,0.3c-0.4-0.2-1.7-0.1-4.8-0.5
				s-7.2-1.3-10.3-4.4c-3.1-3.2-4.7-6.8-5.1-8.1C-88.8,102.3-89.5,102.6-89.7,103.3z"/>
			<path class="st25" d="M-57.8,115.7c0.4,0.1,0.6,0.3,1.4-0.3s1.1-1.3,1.3-1.1c0.2,0.1,0.5,0.1,0.3,0.4s-0.7,0.4-1.2,0.9
				c-0.5,0.4-1.3,0.7-1.8,1c-0.5,0.3-1.1,0.5-1.4,0.7c-0.4,0.2,0.2-0.5,0.6-0.9C-58.3,115.9-58.2,115.7-57.8,115.7z"/>
			<path class="st25" d="M-53.9,114.1c-0.2,0.4,1.6-1.3,2.1-1.6c-0.2-0.1-0.6,0-1.1,0.3C-53.3,113.1-53.6,113.5-53.9,114.1z"/>
			<path class="st25" d="M-54.2,112.3c-0.3,0.1-0.7,0-0.8,0.2c-0.1,0.1,0.4,0.3,0.6,0.2C-54.2,112.5-54.2,112.3-54.2,112.3z"/>
			<path class="st25" d="M-52.3,111.8c0.2,0.4,0.1-0.4,0.7-0.4c0.6,0,0.7-0.1,1.2-0.3c0.4-0.2,0.3-0.4,0.2-0.5s-0.2,0.1-0.4,0.2
				c-0.2,0.2-0.5,0-0.9,0.2C-51.9,111.2-52.4,111.4-52.3,111.8z"/>
			<path class="st25" d="M-49.2,110.5c0,0.2,0.4-0.2,0.3-0.3C-48.9,110.1-49.2,110.2-49.2,110.5z"/>
		</g>
	</g>
	<g>
		<path class="st27" d="M-17.4,143.3c-0.4,0.2-1.1,0.4-2,0.4c-2.1,0-3.7-1.3-3.7-3.8c0-2.3,1.6-3.9,3.9-3.9c0.9,0,1.5,0.2,1.8,0.3
			l-0.2,0.8c-0.4-0.2-0.9-0.3-1.5-0.3c-1.7,0-2.9,1.1-2.9,3.1c0,1.8,1,3,2.8,3c0.6,0,1.2-0.1,1.6-0.3L-17.4,143.3z"/>
		<path class="st27" d="M-9.9,142c0,0.5,0,1,0,1.5h-0.8l-0.1-0.9l0,0c-0.3,0.4-0.8,1-1.8,1c-0.8,0-1.8-0.5-1.8-2.3v-3.1h1v2.9
			c0,1,0.3,1.7,1.2,1.7c0.6,0,1.1-0.5,1.3-0.9c0.1-0.1,0.1-0.3,0.1-0.5v-3.3h1L-9.9,142L-9.9,142z"/>
		<path class="st27" d="M-6.3,135.7h1v7.8h-1V135.7z"/>
		<path class="st27" d="M-0.5,136.6v1.5h1.4v0.7h-1.4v2.9c0,0.7,0.2,1,0.7,1c0.3,0,0.4,0,0.6-0.1v0.7c-0.2,0.1-0.5,0.1-0.9,0.1
			c-0.5,0-0.8-0.1-1-0.4c-0.3-0.3-0.4-0.8-0.4-1.4v-2.9h-0.8V138h0.8v-1.3L-0.5,136.6z"/>
		<path class="st27" d="M8.4,142c0,0.5,0,1,0,1.5H7.5l-0.1-0.9l0,0c-0.3,0.4-0.8,1-1.8,1c-0.8,0-1.8-0.5-1.8-2.3v-3.1h1v2.9
			c0,1,0.3,1.7,1.2,1.7c0.6,0,1.1-0.5,1.3-0.9c0.1-0.1,0.1-0.3,0.1-0.5v-3.3h1V142z"/>
		<path class="st27" d="M12,139.8c0-0.6,0-1.2,0-1.7h0.8v1l0,0c0.2-0.7,0.8-1.2,1.5-1.2c0.1,0,0.2,0,0.3,0v1.1c-0.1,0-0.2,0-0.3,0
			c-0.7,0-1.2,0.5-1.3,1.2c0,0.1,0,0.3,0,0.5v2.8h-1L12,139.8L12,139.8z"/>
		<path class="st27" d="M20.5,143.5l-0.1-0.7l0,0c-0.3,0.4-0.9,0.8-1.6,0.8c-1.1,0-1.6-0.8-1.6-1.5c0-1.3,1.1-2,3.2-2V140
			c0-0.4-0.1-1.2-1.2-1.2c-0.5,0-1,0.2-1.4,0.4l-0.2-0.6c0.4-0.3,1.1-0.5,1.7-0.5c1.6,0,2,1.1,2,2.2v2c0,0.5,0,0.9,0.1,1.3h-0.9
			V143.5z M20.4,140.8c-1.1,0-2.3,0.2-2.3,1.2c0,0.6,0.4,0.9,0.9,0.9c0.7,0,1.1-0.4,1.3-0.9c0-0.1,0.1-0.2,0.1-0.3V140.8z"/>
		<path class="st27" d="M24.9,135.7h1v7.8h-1V135.7z"/>
		<path class="st27" d="M35,141.2l-0.8,2.3h-1l2.5-7.4h1.2l2.5,7.4h-1l-0.8-2.3H35z M37.5,140.4l-0.7-2.1c-0.2-0.5-0.3-0.9-0.4-1.4
			l0,0c-0.1,0.4-0.2,0.9-0.4,1.3l-0.7,2.1L37.5,140.4L37.5,140.4z"/>
		<path class="st27" d="M45.7,143.5v-4.6h-2.2v4.6h-1v-4.6h-0.7v-0.7h0.7V138c0-0.7,0.2-1.4,0.6-1.8c0.3-0.3,0.7-0.5,1.3-0.5
			c0.3,0,0.6,0.1,0.8,0.2l-0.2,0.7c-0.1-0.1-0.4-0.1-0.6-0.1c-0.8,0-1,0.6-1,1.5v0.2h2.2v-0.3c0-0.7,0.2-1.4,0.6-1.9
			c0.4-0.4,0.8-0.5,1.3-0.5c0.4,0,0.6,0.1,0.8,0.2l-0.1,0.7c-0.2-0.1-0.3-0.1-0.6-0.1c-0.8,0-1,0.7-1,1.5v0.3h1.3v0.7h-1.3v4.6h-0.9
			V143.5z"/>
		<path class="st27" d="M53.8,143.5l-0.1-0.7l0,0c-0.3,0.4-0.9,0.8-1.6,0.8c-1.1,0-1.6-0.8-1.6-1.5c0-1.3,1.1-2,3.2-2V140
			c0-0.4-0.1-1.2-1.2-1.2c-0.5,0-1,0.2-1.4,0.4l-0.2-0.6c0.4-0.3,1.1-0.5,1.7-0.5c1.6,0,2,1.1,2,2.2v2c0,0.5,0,0.9,0.1,1.3h-0.9
			V143.5z M53.7,140.8c-1.1,0-2.3,0.2-2.3,1.2c0,0.6,0.4,0.9,0.9,0.9c0.7,0,1.1-0.4,1.3-0.9c0-0.1,0.1-0.2,0.1-0.3V140.8z"/>
		<path class="st27" d="M59.3,136.7c0,0.3-0.2,0.6-0.6,0.6c-0.3,0-0.6-0.3-0.6-0.6c0-0.3,0.3-0.6,0.6-0.6S59.3,136.3,59.3,136.7z
			 M58.2,143.5v-5.3h1v5.3H58.2z"/>
		<path class="st27" d="M62.8,139.8c0-0.6,0-1.2,0-1.7h0.8v1l0,0c0.2-0.7,0.8-1.2,1.5-1.2c0.1,0,0.2,0,0.3,0v1.1c-0.1,0-0.2,0-0.3,0
			c-0.7,0-1.2,0.5-1.3,1.2c0,0.1,0,0.3,0,0.5v2.8h-1V139.8z"/>
		<path class="st27" d="M68.2,142.5c0.3,0.2,0.8,0.4,1.3,0.4c0.7,0,1-0.4,1-0.8c0-0.5-0.3-0.7-1-1c-1-0.3-1.4-0.9-1.4-1.5
			c0-0.9,0.7-1.6,1.8-1.6c0.5,0,1,0.2,1.3,0.3L71,139c-0.2-0.1-0.6-0.3-1.1-0.3c-0.6,0-0.9,0.3-0.9,0.7s0.3,0.6,1,0.9
			c0.9,0.4,1.4,0.8,1.4,1.6c0,0.9-0.7,1.6-2,1.6c-0.6,0-1.1-0.1-1.5-0.4L68.2,142.5z"/>
		<path class="st27" d="M79.1,136.2c0.4-0.1,1.1-0.2,1.7-0.2c1,0,1.6,0.2,2,0.5s0.6,0.7,0.6,1.3c0,0.7-0.5,1.3-1.3,1.6l0,0
			c0.7,0.2,1.5,0.8,1.5,1.9c0,0.6-0.3,1.1-0.6,1.5c-0.5,0.5-1.4,0.7-2.6,0.7c-0.7,0-1.2,0-1.5-0.1v-7.2H79.1z M80,139.2h0.9
			c1,0,1.6-0.5,1.6-1.2c0-0.9-0.7-1.2-1.6-1.2c-0.4,0-0.7,0-0.8,0.1v2.3H80z M80,142.8c0.2,0,0.5,0,0.8,0c1,0,1.9-0.4,1.9-1.4
			s-0.9-1.4-1.9-1.4H80V142.8z"/>
		<path class="st27" d="M91.5,142c0,0.5,0,1,0,1.5h-0.9l-0.1-0.9l0,0c-0.3,0.4-0.8,1-1.8,1c-0.8,0-1.8-0.5-1.8-2.3v-3.1h1v2.9
			c0,1,0.3,1.7,1.2,1.7c0.6,0,1.1-0.5,1.3-0.9c0.1-0.1,0.1-0.3,0.1-0.5v-3.3h1L91.5,142L91.5,142z"/>
		<path class="st27" d="M95.1,139.8c0-0.6,0-1.2,0-1.7h0.8v1l0,0c0.2-0.7,0.8-1.2,1.5-1.2c0.1,0,0.2,0,0.3,0v1.1c-0.1,0-0.2,0-0.3,0
			c-0.7,0-1.2,0.5-1.3,1.2c0,0.1,0,0.3,0,0.5v2.8h-1V139.8z"/>
		<path class="st27" d="M101.1,141c0,1.3,0.9,1.8,1.8,1.8c0.7,0,1.1-0.1,1.5-0.3l0.2,0.7c-0.3,0.2-0.9,0.3-1.8,0.3
			c-1.6,0-2.6-1.1-2.6-2.7c0-1.6,0.9-2.9,2.5-2.9c1.7,0,2.2,1.5,2.2,2.5c0,0.2,0,0.4,0,0.5h-3.8V141z M103.9,140.3
			c0-0.6-0.3-1.6-1.3-1.6s-1.4,0.9-1.5,1.6H103.9z"/>
		<path class="st27" d="M111,143.5l-0.1-0.7l0,0c-0.3,0.4-0.9,0.8-1.6,0.8c-1.1,0-1.6-0.8-1.6-1.5c0-1.3,1.1-2,3.2-2V140
			c0-0.4-0.1-1.2-1.2-1.2c-0.5,0-1,0.2-1.4,0.4l-0.2-0.6c0.4-0.3,1.1-0.5,1.7-0.5c1.6,0,2,1.1,2,2.2v2c0,0.5,0,0.9,0.1,1.3H111
			V143.5z M110.9,140.8c-1.1,0-2.3,0.2-2.3,1.2c0,0.6,0.4,0.9,0.9,0.9c0.7,0,1.1-0.4,1.3-0.9c0-0.1,0.1-0.2,0.1-0.3V140.8z"/>
		<path class="st27" d="M119.8,142c0,0.5,0,1,0,1.5h-0.9l-0.1-0.9l0,0c-0.3,0.4-0.8,1-1.8,1c-0.8,0-1.8-0.5-1.8-2.3v-3.1h1v2.9
			c0,1,0.3,1.7,1.2,1.7c0.6,0,1.1-0.5,1.3-0.9c0.1-0.1,0.1-0.3,0.1-0.5v-3.3h1L119.8,142L119.8,142z"/>
		<path class="st27" d="M122.7,144.9c0.2-0.6,0.5-1.8,0.7-2.6l1.1-0.1c-0.3,0.9-0.7,2.2-1,2.7H122.7z"/>
		<path class="st27" d="M132.8,143.3c-0.4,0.2-1.1,0.4-2,0.4c-2.1,0-3.7-1.3-3.7-3.8c0-2.3,1.6-3.9,3.9-3.9c0.9,0,1.5,0.2,1.8,0.3
			l-0.2,0.8c-0.4-0.2-0.9-0.3-1.5-0.3c-1.7,0-2.9,1.1-2.9,3.1c0,1.8,1,3,2.8,3c0.6,0,1.2-0.1,1.6-0.3L132.8,143.3z"/>
		<path class="st27" d="M136,135.7h1v3.3l0,0c0.2-0.3,0.4-0.5,0.7-0.7c0.3-0.2,0.6-0.3,1-0.3c0.7,0,1.9,0.4,1.9,2.3v3.2h-1v-3.1
			c0-0.9-0.3-1.6-1.2-1.6c-0.6,0-1.1,0.4-1.3,1c-0.1,0.1-0.1,0.3-0.1,0.5v3.2h-1V135.7z"/>
		<path class="st27" d="M145.2,136.7c0,0.3-0.2,0.6-0.6,0.6c-0.3,0-0.6-0.3-0.6-0.6c0-0.3,0.3-0.6,0.6-0.6
			C145,136.1,145.2,136.3,145.2,136.7z M144.1,143.5v-5.3h1v5.3H144.1z"/>
		<path class="st27" d="M151.6,143.5l-0.1-0.7l0,0c-0.3,0.4-0.9,0.8-1.6,0.8c-1.1,0-1.6-0.8-1.6-1.5c0-1.3,1.1-2,3.2-2V140
			c0-0.4-0.1-1.2-1.2-1.2c-0.5,0-1,0.2-1.4,0.4l-0.2-0.6c0.4-0.3,1.1-0.5,1.8-0.5c1.6,0,2,1.1,2,2.2v2c0,0.5,0,0.9,0.1,1.3h-1V143.5
			z M151.5,140.8c-1.1,0-2.3,0.2-2.3,1.2c0,0.6,0.4,0.9,0.9,0.9c0.7,0,1.1-0.4,1.3-0.9c0-0.1,0.1-0.2,0.1-0.3V140.8z"/>
		<path class="st27" d="M156.3,138.2l1.2,3.1c0.1,0.4,0.3,0.8,0.3,1.1l0,0c0.1-0.3,0.2-0.7,0.3-1.1l1.1-3.1h1l-1.5,3.8
			c-0.7,1.8-1.2,2.8-1.8,3.3c-0.5,0.4-0.9,0.6-1.2,0.6l-0.2-0.8c0.2-0.1,0.6-0.2,0.8-0.5c0.3-0.2,0.6-0.6,0.8-1.1
			c0-0.1,0.1-0.2,0.1-0.2s0-0.1-0.1-0.3l-2-4.9h1.2V138.2z"/>
		<path class="st27" d="M164.2,136.7c0,0.3-0.2,0.6-0.6,0.6c-0.3,0-0.6-0.3-0.6-0.6c0-0.3,0.3-0.6,0.6-0.6S164.2,136.3,164.2,136.7z
			 M163.1,143.5v-5.3h1v5.3H163.1z"/>
		<path class="st27" d="M177.2,143.3c-0.4,0.2-1.1,0.4-2,0.4c-2.1,0-3.7-1.3-3.7-3.8c0-2.3,1.6-3.9,3.9-3.9c0.9,0,1.5,0.2,1.8,0.3
			l-0.2,0.8c-0.4-0.2-0.9-0.3-1.5-0.3c-1.7,0-2.9,1.1-2.9,3.1c0,1.8,1,3,2.8,3c0.6,0,1.2-0.1,1.6-0.3L177.2,143.3z"/>
		<path class="st27" d="M181.4,136.7c0,0.3-0.2,0.6-0.6,0.6c-0.3,0-0.6-0.3-0.6-0.6c0-0.3,0.3-0.6,0.6-0.6
			C181.2,136.1,181.4,136.3,181.4,136.7z M180.4,143.5v-5.3h1v5.3H180.4z"/>
		<path class="st27" d="M186.1,136.6v1.5h1.4v0.7h-1.4v2.9c0,0.7,0.2,1,0.7,1c0.3,0,0.4,0,0.6-0.1v0.7c-0.2,0.1-0.5,0.1-0.9,0.1
			c-0.5,0-0.8-0.1-1-0.4c-0.3-0.3-0.4-0.8-0.4-1.4v-2.9h-0.8V138h0.8v-1.3L186.1,136.6z"/>
		<path class="st27" d="M191,138.2l1.2,3.1c0.1,0.4,0.3,0.8,0.3,1.1l0,0c0.1-0.3,0.2-0.7,0.3-1.1l1.1-3.1h1l-1.5,3.8
			c-0.7,1.8-1.2,2.8-1.8,3.3c-0.5,0.4-0.9,0.6-1.2,0.6l-0.2-0.8c0.2-0.1,0.6-0.2,0.8-0.5c0.3-0.2,0.6-0.6,0.8-1.1
			c0-0.1,0.1-0.2,0.1-0.2s0-0.1-0.1-0.3l-2-4.9h1.2V138.2z"/>
	</g>
</g>
</svg>
