<svg xmlns="http://www.w3.org/2000/svg" xmlns:xlink="http://www.w3.org/1999/xlink" id="&#x5716;&#x5C64;_1" x="0px" y="0px" viewBox="0 0 265 62" style="enable-background:new 0 0 265 62;" xml:space="preserve"><style type="text/css">	.st0{fill:#FFFFFF;}	.st1{fill:#D06328;}	.st2{fill:#766A5E;}</style><g>	<g>		<path class="st0" d="M9.1,13.3V62h249.2c3.8,0,6.8-3.1,6.8-6.8V13.3H9.1z"></path>		<polygon class="st0" points="137.9,4.6 12.1,4.6 2,13.2 137.9,13.2   "></polygon>	</g>	<g>		<g>			<path class="st1" d="M10.1,47.8c-0.1-0.7-0.2-1.3-0.5-2c0.5,0,1,0,1.3,0c0.3,0,0.6-0.1,0.7-0.3c0.2-0.3,0.3-1.5,0.4-3.5h-1.2    c-0.1,0.8-0.3,1.5-0.5,2.1C9.5,45.7,8.6,47,7.3,48c-0.4-0.7-0.9-1.3-1.4-1.8c1.1-0.9,1.9-1.9,2.4-3c0.2-0.4,0.4-0.8,0.5-1.2H6.9    l-0.4-2h2.6v-0.2c0-0.3-0.1-0.8-0.2-1.5c0.8,0.2,1.6,0.3,2.3,0.3c0.2,0,0.3,0,0.3,0.1c0,0.1-0.1,0.2-0.2,0.4    c0,0.4-0.1,0.7-0.1,0.9h2.9C14,40.4,14,40.7,14,41c0,2.7-0.1,4.4-0.3,5.2c-0.1,0.6-0.5,1-1.2,1.2C11.9,47.6,11.1,47.8,10.1,47.8z     M21,25.9h-5.8V27h5.5l-0.4,1.9H7.8L7.3,27h5.4v-1.1H6.8l-0.5-2h6.3c0-0.5,0-1.1-0.1-1.7c0.6,0.1,1.5,0.2,2.6,0.2    c0.2,0,0.3,0,0.3,0.1c0,0.1,0,0.1-0.1,0.2c-0.1,0.1-0.2,0.3-0.2,0.5v0.6h6.3L21,25.9z M21.7,38.2H6.3c0.2-0.7,0.4-1.4,0.5-2.1H10    l-0.3-0.9h2.2l0.3,0.9h3.6l0.3-1h2.2l-0.3,1h3.1L21.7,38.2z M7.9,34.8C8,34.5,8,34.2,8,33.9v-3.3c0-0.3,0-0.6-0.1-0.9    c0.8,0.6,1.5,1.3,2.3,1.9v1.2C9.5,33.5,8.7,34.1,7.9,34.8z M17.5,31.5h-7.1c-0.7-0.6-1.4-1.2-2.1-1.8h11.4    C18.9,30.3,18.2,30.9,17.5,31.5z M10.3,33h7.2c0.7,0.6,1.4,1.2,2.1,1.8H8.3C9,34.2,9.6,33.6,10.3,33z M16.7,41.5v4    c-0.7,0.7-1.4,1.4-2.1,2.1c0-0.4,0.1-0.7,0.1-1v-6.2c0-0.3,0-0.7-0.1-1C15.2,40.1,15.9,40.8,16.7,41.5z M14.9,39.4h5.5    c-0.7,0.7-1.3,1.3-2,2H17C16.3,40.7,15.6,40,14.9,39.4z M17,45.5h1.6c0.6,0.7,1.3,1.4,2,2H15C15.6,46.9,16.3,46.2,17,45.5z     M17.7,32.8v-1.2c0.8-0.7,1.5-1.3,2.3-1.9c-0.1,0.3-0.1,0.6-0.1,0.9v3.3c0,0.3,0,0.6,0.1,0.9C19.2,34.2,18.5,33.5,17.7,32.8z     M18.7,45.5v-4c0.7-0.7,1.4-1.4,2.1-2.1c0,0.3-0.1,0.7-0.1,1v6.2c0,0.3,0,0.7,0.1,1C20.2,46.9,19.5,46.2,18.7,45.5z"></path>			<path class="st1" d="M37.5,22.5c0.5,0.9,1,1.7,1.3,2.4h2.5c0.3-0.8,0.6-1.6,0.8-2.3c0.6,0.1,1.5,0.3,2.6,0.4    c0.1,0,0.2,0.1,0.2,0.2c0,0.1-0.1,0.2-0.2,0.3L44,24.9h3.6l-0.4,2h-5.7V28h5.2l-0.4,1.8h-4.8v1.3h5.8l0.5,2h-2.8    c0.8,0.8,1.6,1.8,2.2,2.9c-0.6,0.3-1.2,0.7-1.8,1.2H48l-0.5,2.1h-2c0.4,0.3,0.7,0.6,1.1,0.8c0.2,0.1,0.2,0.2,0.2,0.2    c0,0.1-0.1,0.2-0.4,0.2c-0.7,1.1-1.5,2.2-2.3,3.1c0.2,0.3,0.3,0.6,0.5,0.9c0.3,0.6,0.6,0.8,0.8,0.8c0.3,0,0.5-0.1,0.7-0.4    c0.2-0.3,0.6-1.1,1.1-2.4c0.2,0.9,0.6,1.8,1,2.6c-0.2,0.3-0.5,0.8-1,1.5c-0.6,0.9-1.2,1.3-1.7,1.3c-0.8,0-1.5-0.5-2.3-1.4    c-0.3-0.4-0.6-0.8-0.8-1.2c-0.8,0.7-1.7,1.3-2.6,1.9c-0.3-0.7-0.7-1.4-1.3-2.1c1.2-0.4,2.2-1,3-1.7c-0.2-0.6-0.3-1.1-0.5-1.7    c-0.2-0.8-0.4-1.6-0.5-2.5h-2.6V41c0.2,0,0.4,0,0.6-0.1c0.5-0.1,1-0.2,1.5-0.3c-0.1,0.4-0.1,0.7-0.1,1.1c0,0.3,0,0.7,0.1,1    c-0.7,0.2-1.4,0.3-2.1,0.4V46c0,0.5-0.2,0.9-0.5,1.2c-0.4,0.3-1.6,0.6-3.8,0.8c-0.2-1-0.4-1.8-0.7-2.5c1,0.1,1.8,0.1,2.4,0.1    c0.2,0,0.3-0.1,0.3-0.2v-1.8c-1,0.2-1.9,0.3-2.9,0.4c-0.1,0.2-0.2,0.2-0.3,0.2c-0.1,0-0.2-0.1-0.2-0.2c0-0.3,0.1-0.7,0.1-1    c0-0.4-0.1-0.8-0.2-1.2h1c0.4,0,1.2-0.1,2.5-0.3v-2h-2.9l-0.6-2.1h3.5v-1c-0.8,0.1-1.8,0.2-2.7,0.3c-0.1-0.7-0.2-1.3-0.4-1.8    c2.1-0.1,4.2-0.6,6.1-1.4c0.2,0.5,0.5,1,0.7,1.5c0.2,0.2,0.2,0.4,0.2,0.5c0,0.1-0.1,0.1-0.2,0.1l-0.2-0.1    c-0.4,0.2-0.9,0.3-1.3,0.4v1.5h2.3c0-0.5-0.1-0.9-0.1-1.3c0-0.9-0.1-1.7-0.2-2.5c0.6,0.1,1.4,0.1,2.4,0.1c0.1,0,0.2,0,0.2,0.1    c0,0.1,0,0.2-0.1,0.2c-0.1,0.1-0.1,0.1-0.1,0.2c0,1,0,2,0.1,3.1h2.5c-0.4-0.9-1.1-2-2.1-3.1c0.7-0.4,1.3-0.7,1.6-1h-12    c0.2-0.7,0.3-1.3,0.5-2h5.7v-1.3h-4.7L33.8,28h5.1v-1.2h-5.7l-0.5-2H36c-0.3-0.6-0.6-1.2-1-1.7C35.9,23,36.7,22.8,37.5,22.5z     M43.4,41.5c0.4-0.6,0.8-1.4,1.2-2.2h-1.7c0,0.1,0,0.3,0.1,0.4C43.1,40.4,43.3,41,43.4,41.5z"></path>			<path class="st1" d="M73.7,29.2h-1.8c-0.5,4.2-1.2,7.6-2.4,10.1c-0.3,0.6-0.6,1.2-0.9,1.8c1.6,1.6,3.5,2.9,5.8,3.7    c-0.6,0.8-1.1,1.8-1.6,2.9c-2.4-1.5-4.4-2.9-5.9-4.5c-0.5,0.6-1,1.2-1.6,1.7c-1.3,1.2-2.7,2.1-4.3,2.9c-0.7-0.9-1.4-1.7-2.2-2.5    c2.5-0.6,4.6-1.9,6.4-4c-0.2-0.3-0.4-0.6-0.7-0.8c-1.7-2.4-3-5.8-3.9-10.1c0.8-0.1,1.7-0.3,2.4-0.6c0.7,3.7,2,6.8,3.7,9.2    c0.6-1,1-2,1.3-3c0.6-1.9,0.9-4.2,1-6.9h-9.7l-0.7-2.6h7c-0.2-1.2-0.6-2.3-1-3.3c0.8-0.3,1.5-0.6,2.1-0.9    c0.5,1.3,0.9,2.7,1.2,4.2h6.2L73.7,29.2z"></path>			<path class="st1" d="M89.1,22.3c0.8,0.2,1.7,0.3,2.8,0.4c0.2,0,0.2,0.1,0.2,0.2c0,0.1,0,0.2-0.1,0.2c-0.1,0-0.1,0.1-0.2,0.1    c-0.6,3.1-1.4,5.6-2.5,7.5c-0.9,1.6-2.1,3-3.5,4.2c-0.2-0.9-0.5-1.9-0.9-2.9c0.6-0.5,1.2-1.1,1.7-1.8c1-1.4,1.7-3,2.1-4.8    C89,24.4,89.1,23.3,89.1,22.3z M87.4,48V34.4l1.3-1.8h1.3c0.2,0,0.3,0,0.3,0.1c0,0.1-0.1,0.1-0.2,0.2c-0.1,0.1-0.1,0.2-0.1,0.3    v14.9C89.2,47.9,88.3,47.9,87.4,48z M92.8,22.4c0.6,0.1,1.5,0.2,2.7,0.2c0.2,0,0.3,0.1,0.3,0.2c0,0.1,0,0.2-0.1,0.3    c-0.1,0.1-0.2,0.2-0.2,0.3v7.4h5.1l-0.6,2.5h-4.5v11.5c0,0.3,0.4,0.5,1.1,0.5c0.8,0,1.3-0.2,1.4-0.7c0.1-0.3,0.2-2,0.2-5.2v-1.1    c0.7,0.3,1.5,0.5,2.6,0.7c-0.1,0.9-0.1,1.9-0.2,2.8c-0.1,2.2-0.3,3.7-0.8,4.7c-0.6,1-1.8,1.5-3.6,1.5c-1.4,0-2.3-0.2-2.8-0.7    C93.1,47,93,46.5,93,45.7V24.1C93,23.5,92.9,22.9,92.8,22.4z"></path>			<path class="st1" d="M115.6,22.7c0.4,0,0.9,0.1,1.3,0.1c0.4,0,0.9,0,1.3-0.1c0.9,2.1,2,3.8,3.3,5.2v-2.4c0-0.5,0-0.9-0.1-1.4    c0.5,0.1,1.2,0.1,2.3,0.1c0.1,0,0.2,0,0.2,0.1c0,0.1,0,0.1-0.1,0.2c-0.1,0.1-0.2,0.2-0.2,0.4v17.4c-0.4-0.1-0.7-0.1-1-0.1    c-0.4,0-0.7,0-1,0.1V28.5c-0.4,0.5-0.9,1-1.2,1.6c-0.3-0.4-0.6-0.7-0.8-1l-0.1,0.7h-4.7c-0.1-0.2-0.1-0.4-0.2-0.6    c-0.5,0.7-1,1.3-1.4,1.9c0.6,0.7,1.3,1.4,1.9,2.1v1.2h3.7V33l2-2.1c-0.1,0.3-0.1,0.7-0.1,0.9v6.5c0,0.3,0,0.6,0.1,0.9    c-0.6-0.7-1.3-1.4-1.9-2.1v-1.2h-3.7c0,0.5,0,1-0.1,1.5h3.5c0.6,0.6,1.1,1.3,1.7,1.9h-5.3c0,0.5-0.1,0.9-0.1,1.3    c0.6,0.6,1.2,1.3,1.8,1.9v2.8c-0.7,0.7-1.3,1.4-2,2.1c0-0.3,0.1-0.7,0.1-1v-4.7c-0.3,1.7-0.8,3.8-1.5,6.2    c-0.4-0.8-1.1-1.4-1.9-1.9c0.6-1.5,1.1-3.1,1.3-5c0.3-1.7,0.5-3.9,0.5-6.4v-1.5c0-0.6,0-1.2-0.1-1.8c-0.3,0.3-0.5,0.6-0.7,0.8    c-0.2-1-0.4-2-0.7-2.9C112.9,28,114.3,25.9,115.6,22.7z M118.6,32.8h-3.1c-0.6-0.6-1.2-1.3-1.9-2h6.8    C119.8,31.5,119.2,32.1,118.6,32.8z M115,40.3h5.4c-0.6,0.7-1.2,1.4-1.9,2h-1.6C116.3,41.7,115.6,41,115,40.3z M116.9,45.3h1.6    c0.6,0.7,1.3,1.3,1.9,2h-5.4C115.7,46.7,116.3,46,116.9,45.3z M115.4,27.8h3.3c-0.6-0.9-1.1-1.9-1.7-3.1    C116.5,25.9,116,26.9,115.4,27.8z M118.8,45.2v-2.8c0.7-0.7,1.3-1.4,2-2.1c0,0.4-0.1,0.7-0.1,1v5c0,0.4,0,0.7,0.1,1    C120.1,46.6,119.4,45.9,118.8,45.2z M124.5,22.7c0.5,0.1,1.2,0.1,2.3,0.1c0.2,0,0.2,0.1,0.2,0.2c0,0.1-0.1,0.2-0.2,0.3v22.6    c0,0.5-0.1,0.9-0.4,1.1c-0.3,0.3-1.5,0.5-3.5,0.8c-0.2-1.1-0.4-2-0.8-2.8c1,0.1,1.7,0.1,2.1,0.1c0.2,0,0.3-0.1,0.3-0.2V23.6    C124.6,23.4,124.6,23.1,124.5,22.7z"></path>			<path class="st1" d="M142.8,38.2h6.3c0.8,0.6,1.6,1.2,2.4,1.8H151c1.1,1.7,2,3.8,2.9,6.4c-0.7,0.3-1.4,0.8-2.1,1.3    c-0.3-1.2-0.8-2.5-1.4-3.7c0,0.2,0,0.4-0.1,0.5c-0.2,1.5-0.5,2.4-0.9,2.7c-0.6,0.5-1.8,0.7-3.7,0.7c-1.6,0-2.6-0.2-3.1-0.7    c-0.3-0.3-0.5-0.8-0.5-1.5v-4.3c-0.1,0.1-0.1,0.1-0.1,0.1c-0.5,2.4-1.1,4.4-1.9,6.2c-0.7-0.5-1.5-0.8-2.3-1.1c0.9-2,1.6-4,2-6.2    c0.6,0.2,1.3,0.5,2.1,0.7c0.1,0,0.2,0,0.2,0.1c0-0.2,0-0.5-0.1-0.7c0.5,0.1,1.2,0.2,2.4,0.2h0.1c-0.1-0.3-0.2-0.5-0.4-0.7h-3.6    C141.2,39.5,142,38.8,142.8,38.2z M141.2,26.9h2.6l0.9,2.4h2.4l1.2-2.4h2.6l-1.2,2.4h3.1l0.5,2h-14.5c0.1-0.7,0.3-1.4,0.5-2h2.8    L141.2,26.9z M152.2,26.5h-12.4l-0.5-1.9h5.4c-0.2-0.5-0.4-0.9-0.7-1.3c0.8-0.3,1.5-0.6,2.1-0.9c0.5,0.7,0.8,1.4,1,2.2h5.5    L152.2,26.5z M142.5,34.2v1.1h6.9v-1.1c0.8-0.6,1.6-1.3,2.5-2c0,0.3-0.1,0.6-0.1,0.9v6c0,0.3,0,0.6,0.1,0.9    c-0.8-0.6-1.7-1.3-2.5-2v-1.2h-6.9v1.2c-0.8,0.7-1.6,1.3-2.5,2c0-0.3,0-0.6,0-0.9v-6c0-0.3,0-0.6-0.1-0.9    C140.8,32.8,141.6,33.5,142.5,34.2z M140.4,32.2h11c-0.8,0.6-1.6,1.2-2.3,1.9h-6.3C142,33.5,141.2,32.8,140.4,32.2z M149.8,42.7    c-0.2-0.5-0.5-1-0.8-1.6c0.7-0.4,1.3-0.7,1.7-1.1h-4c0.5,0.9,0.9,2,1.2,3.1c-0.8,0.2-1.5,0.6-2.1,1c-0.3-1.1-0.6-2.2-1.1-3.1    c0,0,0,0-0.1,0c-0.1,0.1-0.2,0.2-0.2,0.3V45c0,0.4,0.1,0.6,0.4,0.7c0.4,0.1,1,0.2,1.7,0.2c0.6,0,1.1-0.1,1.3-0.4    c0.2-0.4,0.3-1.5,0.3-3.2C148.6,42.4,149.2,42.6,149.8,42.7z"></path>			<path class="st1" d="M167.9,34.3v4.3c0,0.3,0,0.7,0,1c0.4-0.5,0.7-1.1,0.9-1.7c0.5-1,0.8-2.2,1-3.4c0.6,0.2,1.2,0.3,2.1,0.4    c0.1,0,0.2,0.1,0.2,0.2c0,0.1-0.1,0.2-0.2,0.2c-0.2,0.5-0.3,1-0.4,1.3h1.8v-0.8c0-0.5,0-1-0.1-1.6c0.6,0.1,1.4,0.2,2.5,0.2    c0.1,0,0.2,0,0.2,0.1c0,0.1,0,0.2-0.1,0.2c-0.1,0.1-0.2,0.3-0.2,0.4v1.4h4.1l-0.5,2.1h-3.7v2h3.7l-0.5,2.1h-3.2V45h4.8l0.5,2.2    h-13.4c0.2-0.8,0.3-1.5,0.5-2.2h5.2v-2.1h-3.3l-0.4-1.8c-0.3,0.4-0.5,0.8-0.7,1.2c-0.3-0.4-0.6-0.8-0.9-1.1    c-0.1,0.7-0.1,1.4-0.2,2.1c-0.3,1.5-0.8,3.1-1.6,4.7c-0.5-0.8-1.2-1.5-2-2c0.6-1.2,1-2.3,1.3-3.3c0.3-1.4,0.5-2.9,0.4-4.8V34    c0-0.8,0-1.5-0.1-2.3C166.4,32.6,167.1,33.4,167.9,34.3z M179.7,34h-11.5c-0.7-0.8-1.3-1.5-2-2.3h2.3c-0.3-0.3-0.7-0.6-1.1-0.9    c1.3-0.3,2.5-0.8,3.6-1.3c-1-0.4-2.1-0.8-3.2-1.2c0.3-0.3,0.6-0.6,0.8-1H166l-0.6-2.3h6c-0.2-0.6-0.6-1.2-0.9-1.7    c0.7-0.2,1.4-0.5,2-0.9c0.6,0.8,1,1.7,1.3,2.6h6l-0.5,2.3h-2.5c0.2,0.1,0.3,0.2,0.5,0.3c0.1,0.1,0.1,0.1,0.1,0.2    c0,0.1-0.1,0.1-0.2,0.1c-0.7,0.5-1.4,1-2.2,1.4c1,0.5,2,1.1,2.9,1.6c-0.2,0.3-0.5,0.6-0.7,0.9h2.9L179.7,34z M173.2,40.7v-2h-2.6    c0,0.1-0.1,0.2-0.2,0.3c-0.2,0.5-0.5,1.1-0.8,1.6H173.2z M173.1,28.3c0.6-0.3,1.1-0.7,1.6-1.2h-4.5    C171.2,27.6,172.1,28,173.1,28.3z M173.1,30.5c-0.9,0.5-1.8,0.9-2.7,1.2h5.2C174.8,31.3,173.9,30.8,173.1,30.5z"></path>			<path class="st1" d="M205.1,34h-5.2v1.2h5.4l-0.5,2h-4.8v1.3h5.5l0.5,2.3h-6v1.5c0.7-0.4,1.2-0.8,1.6-1.3c1,1.7,2.7,3.3,5.2,4.8    c-0.7,0.6-1.3,1.2-1.8,1.9c-1.8-1.3-3.5-3-5.1-5.1V48c-0.4-0.1-0.8-0.1-1.2-0.1c-0.4,0-0.9,0-1.3,0.1v-4.5    c-1.6,2-3.4,3.5-5.3,4.4c-0.3-0.6-0.8-1.3-1.5-2c1.2-0.5,2.5-1.3,3.8-2.5c0.8-0.7,1.5-1.5,2-2.4h-5.1c0.2-0.8,0.4-1.5,0.6-2.3    h5.6v-1.3h-4.9l-0.6-2h5.5V34h-5.3l-0.5-2.2h3.1l-0.5-1.9h2.5l0.5,1.9h2.6l0.5-1.9h2.6l-0.5,1.9h3.3L205.1,34z M195.4,22.4    c0.6,0.1,1.4,0.2,2.5,0.2c0.2,0,0.3,0,0.3,0.1c0,0.1-0.1,0.2-0.2,0.2c-0.1,0.1-0.2,0.3-0.2,0.4v3.9h1.4v-3.3c0-0.5,0-1-0.1-1.5    c0.6,0.1,1.4,0.2,2.5,0.2c0.2,0,0.3,0,0.3,0.1c0,0.1,0,0.2-0.1,0.2c-0.1,0.1-0.2,0.3-0.2,0.4v3.2c0.7-1,1.2-2,1.5-3    c0.6,0.2,1.2,0.5,2,0.7c0.2,0.1,0.4,0.1,0.4,0.2c0,0.1-0.1,0.2-0.3,0.2c-0.4,1-0.9,1.8-1.5,2.6h2.8l-0.6,2.2h-14.4l-0.6-2.2h1.9    c-0.2-1.1-0.6-2.1-1.1-3.1c0.8-0.2,1.5-0.4,2.2-0.6c0.5,1.2,0.9,2.3,1.1,3.3c-0.4,0.1-0.9,0.2-1.3,0.4h1.7v-3.3    C195.5,23.5,195.5,22.9,195.4,22.4z M201.5,27.2h1.4c-0.4-0.2-0.9-0.4-1.4-0.6V27.2z"></path>			<path class="st1" d="M220.6,45.1h2c-0.2-0.6-0.5-1.3-0.9-2c0.5-0.1,1-0.2,1.6-0.5v-1.1c-0.6,0.7-1.2,1.3-1.8,1.7    c-0.2-0.5-0.7-1.1-1.2-1.7V45c-0.8,0.8-1.5,1.7-2.3,2.5c0-0.4,0.1-0.8,0.1-1.2v-22c0-0.4,0-0.8-0.1-1.2c0.8,0.8,1.6,1.7,2.3,2.5    v15.8c0.6-0.3,1.1-0.7,1.7-1.4c0.4-0.3,0.7-0.7,0.9-1.2H222c0.6-0.6,1.2-1.1,1.8-1.6h2.5c0.6,0.5,1.2,1,1.8,1.6    c0.1-0.1,0.1-0.1,0.1-0.2c-0.6-0.5-1.1-1.1-1.7-1.6v-2.5c0.7-0.6,1.3-1.2,2-1.8c0,0.3-0.1,0.6-0.1,0.8V38c0,0.2,0,0.3,0,0.5    c0.4,0.3,0.9,0.6,1.4,0.9c0.1,0,0.1,0.1,0.1,0.1V25.6c0.8-0.8,1.5-1.7,2.3-2.5c0,0.4-0.1,0.8-0.1,1.2v22c0,0.4,0,0.8,0.1,1.2    c-0.8-0.8-1.6-1.7-2.3-2.5v-2c-0.5,0.4-1,0.9-1.3,1.4c-0.7-0.6-1.3-1.2-1.9-2c0.1,0.3,0.1,0.6,0.2,0.9c-1.3,0.7-2.7,1.3-4,1.7    c0,0,0,0.1-0.1,0.1h6.8c0.7,0.8,1.5,1.6,2.2,2.4h-13.5C219.1,46.7,219.9,45.9,220.6,45.1z M218.3,23.1h13.5    c-0.7,0.8-1.5,1.6-2.2,2.4h-9.1C219.8,24.7,219.1,23.9,218.3,23.1z M228.5,29h-2.3v1.3h2.9l0.4,1.7h-8.8c0.1-0.6,0.3-1.1,0.5-1.7    h2.9V29h-2.2l-0.4-1.8h2.6v-0.2c0-0.4,0-0.8-0.1-1.3c0.5,0.1,1.2,0.1,2.2,0.1c0.1,0,0.2,0,0.2,0.1c0,0.1,0,0.1-0.1,0.2    c-0.1,0.1-0.1,0.2-0.1,0.4v0.6h2.7L228.5,29z M221.7,38.8c0-0.3,0.1-0.6,0.1-0.8v-4.4c0-0.3,0-0.6-0.1-0.8c0.7,0.6,1.4,1.2,2,1.8    v2.5C223,37.6,222.3,38.2,221.7,38.8z M226.3,34.4h-2.5c-0.6-0.5-1.2-1.1-1.9-1.6h6.2C227.5,33.4,226.9,33.9,226.3,34.4z     M225.2,38.8V40c0.5-0.3,1-0.7,1.3-1c0.2,0.4,0.4,0.8,0.7,1.1c0.3-0.4,0.6-0.8,0.8-1.2H225.2z M225.2,42.1c0.4-0.2,0.7-0.3,1-0.5    c-0.4-0.4-0.7-0.9-1-1.4V42.1z M228.4,41.4c0.5,0.5,1,0.9,1.6,1.3v-3.1c-0.1,0-0.1,0.1-0.2,0.1C229.3,40.3,228.8,40.9,228.4,41.4    z"></path>			<path class="st1" d="M258.8,26.4h-11.3v16.7c0,0.5,0.3,0.8,0.8,0.8h10.6l0.8,2.8h-13.5c-0.9,0-1.3-0.6-1.3-1.8V26.4h-0.7    l-0.7-2.7h16.1L258.8,26.4z M248,42.8c0-0.3,0.1-0.6,0.1-0.9v-6c0-0.3,0-0.7-0.1-0.9c0.6,0.7,1.3,1.3,1.9,2v3.8    C249.3,41.4,248.7,42.1,248,42.8z M251,36.8h-0.9c-0.6-0.6-1.2-1.2-1.8-1.8h4.4C252.1,35.6,251.5,36.2,251,36.8z M250.1,40.9h0.9    c0.6,0.6,1.1,1.2,1.7,1.8h-4.4C248.9,42.2,249.5,41.5,250.1,40.9z M249.1,34c0-0.3,0.1-0.7,0.1-1v-4.6c0-0.3,0-0.7-0.1-1    c0.7,0.7,1.4,1.5,2.2,2.2v2.2C250.6,32.5,249.8,33.2,249.1,34z M255.2,29.4h-3.8c-0.7-0.7-1.4-1.4-2-2h7.8    C256.6,28,255.9,28.7,255.2,29.4z M251.4,31.9h3.9c0.6,0.7,1.3,1.4,2,2.1h-7.8C250.1,33.3,250.7,32.6,251.4,31.9z M251.2,40.7    v-3.8c0.6-0.7,1.3-1.3,1.8-2c0,0.3-0.1,0.6-0.1,0.9v6c0,0.3,0,0.6,0.1,0.9C252.4,42.1,251.8,41.4,251.2,40.7z M253.7,42.8    c0-0.3,0.1-0.6,0.1-0.9v-6c0-0.3,0-0.7-0.1-0.9c0.6,0.7,1.2,1.3,1.8,2v3.8C254.9,41.4,254.3,42.1,253.7,42.8z M256.7,36.8h-0.9    c-0.6-0.6-1.2-1.2-1.8-1.8h4.5C257.8,35.6,257.2,36.2,256.7,36.8z M255.7,40.9h1c0.6,0.6,1.1,1.2,1.7,1.8H254    C254.6,42.2,255.1,41.5,255.7,40.9z M255.4,31.7v-2.2c0.7-0.7,1.4-1.5,2.2-2.2c-0.1,0.4-0.1,0.7-0.1,1v4.6c0,0.4,0,0.7,0.1,1    C256.9,33.2,256.2,32.5,255.4,31.7z M256.9,40.7v-3.8c0.6-0.6,1.2-1.3,1.8-2c0,0.3-0.1,0.6-0.1,0.9v6c0,0.3,0,0.6,0.1,0.9    C258.1,42.1,257.5,41.4,256.9,40.7z"></path>		</g>		<g>			<polygon class="st1" points="10.7,60.4 10.7,55.5 9.1,55.5 9.1,62 9.7,62 10.7,62 257.9,62 257.9,60.4    "></polygon>		</g>		<g>			<path class="st2" d="M17.2,11.9c0,0.5-0.1,0.8-0.3,1.1c-0.2,0.2-0.5,0.3-0.9,0.3h-1.2c-0.4,0-0.7-0.1-0.9-0.3    c-0.2-0.2-0.3-0.6-0.3-1.1V8.7c0-0.5,0.1-0.9,0.3-1.1c0.2-0.2,0.5-0.3,1-0.3h2.3v1h-2.3v3.9H16v-1.4h-0.5V10h1.7V11.9z"></path>			<path class="st2" d="M23.8,12.1c0,0.5-0.1,0.8-0.2,0.9c-0.1,0.1-0.5,0.2-1,0.2h-2.1v-1h2.1v-1.4h-1.3c-0.5,0-0.8-0.1-0.9-0.3    c-0.2-0.2-0.2-0.5-0.2-0.9V8.5c0-0.4,0.1-0.7,0.2-0.9c0.2-0.2,0.5-0.3,0.9-0.3h1.1c0.6,0,1,0.1,1.2,0.3c0.2,0.1,0.2,0.5,0.2,1    V12.1z M22.7,10.2V8.4h-1.3v1.8H22.7z"></path>			<path class="st2" d="M43.8,8.4h-2.4v3.8h2.4v1h-2.2c-0.5,0-0.9-0.1-1.1-0.3c-0.2-0.2-0.3-0.6-0.3-1.1V8.7c0-0.9,0.5-1.4,1.4-1.4    h2.2V8.4z"></path>			<path class="st2" d="M50.4,13.3h-1.2v-2.4H48v2.4h-1.2V7.4h2.5c0.4,0,0.8,0.1,0.9,0.2c0.2,0.1,0.3,0.4,0.3,0.7v0.9    c0,0.6-0.3,0.9-0.9,1c0.6,0.2,0.9,0.5,0.9,1V13.3z M49.2,10V8.4H48V10H49.2z"></path>			<path class="st2" d="M57,8.4h-2.4v1.5H57v0.8h-2.4v1.5H57v1h-3.6V7.4H57V8.4z"></path>			<path class="st2" d="M63.7,13.3h-1.2v-2.7h-1.2v2.7h-1.2v-5c0-0.6,0.4-0.9,1.1-0.9h1.4c0.7,0,1.1,0.3,1.1,0.9V13.3z M62.5,10V8.4    h-1.2V10H62.5z"></path>			<path class="st2" d="M70.3,8.4h-1.1v4.9h-1.4V8.4h-1.2v-1h3.6V8.4z"></path>			<path class="st2" d="M75.8,13.3h-1.3V7.4h1.3V13.3z"></path>			<path class="st2" d="M83.6,7.4l-1,5.9h-1.7l-1-5.9H81l0.5,4H82l0.5-4H83.6z"></path>			<path class="st2" d="M90.2,8.4h-2.4v1.5h2.4v0.8h-2.4v1.5h2.4v1h-3.6V7.4h3.6V8.4z"></path>			<path class="st2" d="M110.1,10.3c0,0.3-0.1,0.5-0.2,0.7c-0.1,0.1-0.4,0.2-0.7,0.2h-1.5v2.1h-1.2V7.4h2.7c0.4,0,0.6,0.1,0.8,0.2    c0.1,0.1,0.2,0.4,0.2,0.7V10.3z M108.9,10.3V8.4h-1.2v1.9H108.9z"></path>			<path class="st2" d="M116.8,13.3h-1.2v-2.7h-1.2v2.7h-1.2v-5c0-0.6,0.4-0.9,1.1-0.9h1.4c0.7,0,1.1,0.3,1.1,0.9V13.3z M115.5,10    V8.4h-1.2V10H115.5z"></path>			<path class="st2" d="M123.4,13.3h-1.2v-2.4H121v2.4h-1.2V7.4h2.5c0.4,0,0.8,0.1,0.9,0.2c0.2,0.1,0.3,0.4,0.3,0.7v0.9    c0,0.6-0.3,0.9-0.9,1c0.6,0.2,0.9,0.5,0.9,1V13.3z M122.2,10V8.4H121V10H122.2z"></path>			<path class="st2" d="M130.1,13.3h-1.3l-1-2.4h-0.4v2.4h-1.2V7.4h1.2v2.5h0.4l1-2.5h1.2l-1.1,2.9L130.1,13.3z"></path>		</g>		<polygon class="st2" points="13.9,4.6 132.7,4.6 132.7,3 13.3,3 0.1,13.1 0.1,13.2 2.7,13.2   "></polygon>		<rect x="2.7" y="11.7" class="st2" width="7.2" height="1.6"></rect>		<rect x="8.4" y="11.7" class="st2" width="1.5" height="5.4"></rect>		<path class="st2" d="M103.1,1.1L103.1,1.1l0,2h-2.3v-2h0L100,0h3.8L103.1,1.1z"></path>		<path class="st2" d="M41.3,1.1L41.3,1.1l0,2H39v-2h0l-0.7-1h3.8L41.3,1.1z"></path>		<path class="st2" d="M72.2,1.1L72.2,1.1l0,2h-2.3v-2h0l-0.7-1h3.8L72.2,1.1z"></path>		<polygon class="st2" points="252.1,3 132.7,3 132.7,13.3 265.2,13.3 265.2,13.2   "></polygon>		<path class="st2" d="M195.7,1.1L195.7,1.1l0,2h-2.3v-2h0l-0.7-1h3.8L195.7,1.1z"></path>		<path class="st2" d="M226.6,1.1L226.6,1.1l0,2h-2.3v-2h0l-0.7-1h3.8L226.6,1.1z"></path>		<path class="st2" d="M133.9,1.1L133.9,1.1l0,2h-2.3v-2h0l-0.7-1h3.8L133.9,1.1z"></path>		<path class="st2" d="M164.8,1.1L164.8,1.1l0,2h-2.3v-2h0l-0.7-1h3.8L164.8,1.1z"></path>	</g></g></svg>