<svg xmlns="http://www.w3.org/2000/svg" viewBox="0 0 295.96 295.96"><defs><style>.earth-a{fill:#4376ea;}.earth-b{fill:#8d5;}.earth-c{fill:#3d94a4;}</style></defs><title>未命名-1</title><path class="earth-a" d="M156.82,81.15l13.55,3.29,1.31.54,9.47,5.09c-1.84,2.14-5.26,4.3-5.22,6.41.12,8.37-5.77,10.7-11.63,13.48a13.64,13.64,0,0,0-4.56,3,8.93,8.93,0,0,0-2.46,5.15c0,.84,2.61,2.35,4.15,2.5,5.67.58,11.43,1.25,17.08.88,6.45-.41,9.74,1.93,10.9,8.26A54.38,54.38,0,0,0,193,140.82c1.75,4.11,4.28,7.62,9.52,4.54,5.48-3.21,4.3-6.93.64-10.81a7.35,7.35,0,0,1-1-2.45l1.34-1.38L215,138.67c3,23.88-4.22,44.15-21.79,60.55-2.93,2.74-6.89,4.38-10.37,6.52,5.32-15.08,10.63-30.14,15.6-44.27-3.32-2.18-8.62-3.72-9.38-6.5-2.54-9.3-7.32-15-16.42-19s-15.49-4.08-21.24,3.74c-8.43,11.44-3.27,24.29,10.35,27,2.46.49,6.45,4.9,6,6.38-2.72,9,2,16.71,3.18,25,1,6.92,3.89,9.94,10.88,8.32-18.09,12.41-37.33,13.45-57.43,5.8,4-7.88,8.23-15.63,11.81-23.68,2.74-6.16,4-12.23-5.71-13.91-1.87-.33-3.25-3.12-5-4.6-3.13-2.66-6-6.5-9.63-7.52-8.58-2.41-17.08-4.44-23.31-11.42-1.54-1.73-3-3.55-4.46-5.34,1.75-1.35,3.53-3.9,5.23-3.85,8.37.27,12.75-4.88,16.67-11l1.29-1.52.09-.15,1.88-2.51a2.87,2.87,0,0,1,1.08-.66l2.34-2,.48-.35,3.44-3.75.23-.26,6.48-3.93c0-.6.1-1.2.14-1.8l-.91-1.49-1-1.27.36-6,2.27-2.1L128,98.45,127.1,97c.71-1,1.21-2.55,2.17-2.94,6.83-2.77,7-6.63,2.21-11.52l22.92-1.74Z"/><path class="earth-b" d="M125.53,111.17l1,1.27.91,1.49c0,.6-.09,1.2-.14,1.79l-6.48,3.94-.22.26-3.45,3.75-.48.35-2.34,2a2.75,2.75,0,0,0-1.07.66l-1.89,2.51-.09.16L110,130.9c-3.92,6.12-8.3,11.27-16.67,11-1.7-.05-3.48,2.5-5.23,3.85,1.49,1.79,2.92,3.61,4.46,5.34,6.23,7,14.73,9,23.31,11.42,3.63,1,6.5,4.86,9.63,7.52,1.75,1.48,3.13,4.27,5,4.6,9.68,1.68,8.45,7.75,5.71,13.91-3.58,8.05-7.84,15.8-11.81,23.68l-13.15-6.4c-2-6-3.82-12.13-6.12-18-1.2-3.1-4.44-5.74-4.75-8.8-1.45-14.31-10.07-23.5-20.94-31.33.66-20.86,7.43-38.69,25.25-51.06,4.9-2.27,9.7-4.8,14.72-6.72,3.74-1.43,7.77-2.07,11.72-3.08.87,5.7-10.17,3.5-4,10.21.3.49.61,1,.91,1.45l.15,4.66-2.26,2.09c-7.44-5.83-12.51-5.85-18.24.38-1.12,1.22-1,3.58-1.47,5.42,1.6.18,4,1.11,4.66.42C115.8,105.81,120.62,108.84,125.53,111.17Z"/><path class="earth-b" d="M181.83,206.42c-7,1.62-9.9-1.4-10.88-8.32-1.17-8.28-5.9-16-3.18-25,.45-1.48-3.54-5.89-6-6.38-13.62-2.72-18.78-15.57-10.35-27,5.75-7.82,12.19-7.72,21.24-3.74s13.88,9.69,16.42,19c.76,2.78,6.06,4.32,9.38,6.5-5,14.13-10.28,29.19-15.6,44.27A4,4,0,0,0,181.83,206.42Z"/><path class="earth-b" d="M215,138.67l-11.51-7.95-1.34,1.38a7.35,7.35,0,0,0,1,2.45c3.66,3.88,4.84,7.6-.64,10.81-5.24,3.08-7.77-.43-9.52-4.54a54.38,54.38,0,0,1-3.57-11.12c-1.16-6.33-4.45-8.67-10.9-8.26-5.65.37-11.41-.3-17.08-.88-1.54-.15-4.17-1.66-4.15-2.5a8.93,8.93,0,0,1,2.46-5.15,13.64,13.64,0,0,1,4.56-3c5.86-2.78,11.75-5.11,11.63-13.48,0-2.11,3.38-4.27,5.22-6.41C201.19,100.18,211.22,117.25,215,138.67Z"/><path class="earth-a" d="M79.44,147.64c10.87,7.83,19.49,17,20.94,31.33.31,3.06,3.55,5.7,4.75,8.8,2.3,5.92,4.1,12,6.12,18C89.14,192.72,79.44,172.83,79.44,147.64Z"/><path class="earth-c" d="M127.1,97c-6.14-6.71,4.9-4.51,4-10.21-3.95,1-8,1.65-11.72,3.08-5,1.92-9.82,4.45-14.72,6.72,7-8.36,16.32-12.33,26.8-14,4.76,4.89,4.61,8.75-2.22,11.52C128.31,94.44,127.81,96,127.1,97Z"/><path class="earth-c" d="M156.82,81.15l-2.42-.36Z"/><path class="earth-c" d="M171.68,85l-1.31-.54A1.63,1.63,0,0,1,171.68,85Z"/><path class="earth-c" d="M125.53,111.17c-4.91-2.33-9.73-5.36-14.68.24-.62.69-3.06-.24-4.66-.42.46-1.84.35-4.2,1.47-5.42,5.73-6.23,10.8-6.21,18.24-.38Q125.7,108.19,125.53,111.17Z"/><path class="earth-c" d="M120.83,119.66l6.48-3.94Z"/><path class="c" d="M128.16,103.1,128,98.44Z"/><path class="earth-c" d="M117.16,123.67l3.45-3.75Z"/><path class="earth-c" d="M127.45,113.93l-.91-1.49Z"/><path class="earth-c" d="M114.34,126.06l2.34-2Z"/><path class="earth-c" d="M111.38,129.23l1.89-2.51Z"/><path class="earth-c" d="M110,130.9l1.29-1.51Z"/></svg>