<svg xmlns="http://www.w3.org/2000/svg" viewBox="0 0 273 229"><defs><style>.planet-a{fill:#f4f8f8;}.planet-b{fill:#3d94a4;}.planet-c{fill:#4195a1;}.planet-d{fill:#2e717d;}</style></defs><title>未命名-1</title><path class="planet-a" d="M42.3,122.34c-2.77,5.78,1.82,6.39,5.2,6.31,7.92-.19,15.83-1.16,23.75-1.82,32.63-9.48,65.48-18.3,97.8-28.75,13.9-4.49,26.71-12.34,40-18.67,5.46-3.33,11.32-6.16,16.26-10.15,4.47-3.61,3.91-7.16-2.57-8.08a3.06,3.06,0,0,1,0-1.13c7.24.2,14.61-.41,21.68.81,10.11,1.74,12.4,8.28,4.88,15.11-8.18,7.41-17.83,13.2-26.86,19.67-1.46,1-3,1.93-4.56,2.89l-6,3.54,0-.27c-26.73,10.34-53.21,21.36-80.26,30.76-16.66,5.8-34.17,9.14-51.3,13.58-9.3,1-18.58,2.35-27.9,3A87.77,87.77,0,0,1,33,148.55c-3.69-.6-8.93-3-9.92-5.77s1.76-7.84,4.3-10.58c4-4.32,9.21-7.54,13.9-11.23C41.65,121.43,42,121.89,42.3,122.34Z"/><path class="planet-b" d="M116.44,177c-12-2.11-20.55-9.65-28.43-18.21,1.52-1.14,2.89-2.92,4.58-3.31,5.8-1.33,11.71-2.23,17.59-3.2,32.75-5.43,63.46-16,89.92-36.64C204.79,112,208,106.46,212,101.8l0,.27,6.25.19c1.72,15-.56,29.3-8.1,42.52-1.36,2.38-3.58,4.27-5.4,6.38-24,11.88-49.71,17-75.94,20.57C124.48,172.31,120.53,175.17,116.44,177Z"/><path class="planet-c" d="M209.06,79.41c-13.3,6.33-26.11,14.18-40,18.67-32.32,10.45-65.17,19.27-97.8,28.75q1.56-14.6,3.1-29.18c9.63,1.17,19.46,4.22,28.83,3.15,24.73-2.84,46.25-15,67.41-27.18,6.76-3.89,12-10.34,18-15.62C198.33,62.36,205.26,69.39,209.06,79.41Z"/><path class="planet-b" d="M82.54,80.13c10.88-19.16,28.13-29.4,49-33.92,16.42-3.57,32.57-2.12,47.81,5.66-8.45,5.71-16.4,12.42-25.44,16.93C131.44,80,107.14,81.48,82.54,80.13Z"/><path class="planet-d" d="M82.54,80.13c24.6,1.35,48.9-.14,71.34-11.33,9-4.51,17-11.22,25.44-16.93L188.6,58c-6,5.28-11.25,11.73-18,15.62C149.43,85.78,127.91,98,103.18,100.8c-9.37,1.07-19.2-2-28.83-3.15Z"/><path class="planet-d" d="M212,101.8c-3.91,4.66-7.16,10.16-11.85,13.82-26.46,20.65-57.17,31.21-89.92,36.64-5.88,1-11.79,1.87-17.59,3.2-1.69.39-3.06,2.17-4.58,3.31l-7.62-12.63c17.13-4.44,34.64-7.78,51.3-13.58C158.74,123.16,185.22,112.14,212,101.8Z"/><path class="planet-d" d="M116.44,177c4.09-1.81,8-4.67,12.3-5.25,26.23-3.57,52-8.69,75.94-20.57-7.86,7.36-14.8,16.19-23.77,21.77-17.4,10.84-37,11.51-56.8,7.48C121.43,179.87,119,178.15,116.44,177Z"/><path class="planet-c" d="M41.32,121l3.09-2.84,2.42,2.46-4.53,1.76Z"/><path class="planet-d" d="M218.18,102.26l-6.25-.19,6-3.54C218,99.77,218.1,101,218.18,102.26Z"/></svg>