<svg xmlns="http://www.w3.org/2000/svg" viewBox="0 0 280 291"><defs><style>.rocket-a{fill:#4a75e8;}.rocket-b{fill:#e13542;}.rocket-c{fill:#5e6e76;}.rocket-d{fill:#f4f8f8;}</style></defs><title>未命名-1</title><path class="rocket-a" d="M173.69,127.16l-6.23,14.69-17.65,29.59c-9.79,10.24-19.33,20.72-29.5,30.55-3.16,3.06-8,4.37-12.1,6.48-5.17-14.55-14.85-24.72-29.34-30.22,6.37-14.11,17.2-24.46,28.76-34.21,2.38-2,4.7-4,7.05-6.08l29.5-18.14,15.07-7.11Zm-59.82,36.1a11.56,11.56,0,0,0-11.7,11.15c0,6.18,5.27,11.68,11.44,11.35,6.54-.34,10.67-3.84,11.12-10.66A11.29,11.29,0,0,0,113.87,163.26ZM150,148.39l-.12-3.89c-3.43-2.23-7.25-6.64-10.2-6.12-3.33.58-7.64,5.25-8.34,8.77-1,5.17,3.4,9.22,8.69,8.16C143.63,154.58,146.66,150.81,150,148.39Z"/><path class="rocket-b" d="M78.87,178.25c14.49,5.5,24.17,15.67,29.34,30.22-8.8,6.63-18.94,7-28.95,4.83-2.51-.54-5.93-5.94-5.64-8.77C74.53,195.68,77,187,78.87,178.25Z"/><path class="rocket-b" d="M149.81,171.44l17.65-29.59c6-1.21,12-2.87,18.16-3.43a14.11,14.11,0,0,1,9,2.69c.81.6-.3,6-2,7.48-8.78,7.6-17.6,15.34-27.37,21.53C161.33,172.56,155,171.12,149.81,171.44Z"/><path class="rocket-b" d="M144.18,119.82,114.68,138c.61-5.5-.46-12.06,2.18-16.3,6-9.64,13.62-18.29,21-27,1.25-1.46,6-2.23,6.87-1.26a11.9,11.9,0,0,1,3.06,8.24C147.21,107.78,145.46,113.78,144.18,119.82Z"/><path class="rocket-b" d="M173.69,127.16l-14.44-14.45c.55-3.38,1.1-6.77,1.66-10.26L183,125.32Z"/><path class="rocket-c" d="M193.39,95.27l11.09-13.34L206.71,84l-12.5,11.92Z"/><path class="rocket-c" d="M200.07,100.3q-4.6,4.83-9.22,9.64l-.56-.55,9.14-9.63Z"/><path class="rocket-c" d="M175.15,92.63l-3.28,4-1.4-1.32,3.87-3.5Z"/><path class="rocket-c" d="M199.46,78.39l-2.53,2.72-1-1,2.55-2.72Z"/><path class="rocket-c" d="M199.43,99.76c.62-.73,1.25-1.47,1.9-2.18a4.61,4.61,0,0,1,.61.43l-1.87,2.29Z"/><path class="rocket-c" d="M191.73,98.26l1.66-3,.82.66c-.68.93-1.37,1.85-2.06,2.77Z"/><path class="rocket-c" d="M189.27,111.46,188,112.73l.75-1.75Z"/><path class="rocket-c" d="M182.89,108.21l-1,.44.38-1.05C182.47,107.81,182.68,108,182.89,108.21Z"/><path class="rocket-c" d="M188.79,111l1.5-1.58s.55.54.56.54l-1.58,1.52Z"/><path class="rocket-c" d="M183.76,106l1.61-1.55c.21.22.43.42.64.63l-1.51,1.67Z"/><path class="rocket-c" d="M184,81.13l1-.43-.36,1Z"/><path class="rocket-c" d="M182.38,82.67l1.6-1.54.62.59c-.46.58-.93,1.16-1.4,1.73Z"/><path class="rocket-c" d="M180.85,84.27l1.53-1.6.82.78L181.61,85Z"/><path class="rocket-c" d="M181.61,85,180,86.56c-.22-.23-.45-.46-.69-.68l1.54-1.61Z"/><path class="rocket-c" d="M191.7,85.69l1-.49-.5,1Z"/><path class="rocket-c" d="M180,86.56l-1.19.46.5-1.14C179.55,86.1,179.78,86.33,180,86.56Z"/><path class="rocket-c" d="M192.21,86.23l-1.48,1.65-.7-.73,1.67-1.45S192.21,86.23,192.21,86.23Z"/><path class="rocket-c" d="M190.73,87.88l-1.54,1.59c-.23-.23-.46-.46-.68-.7L190,87.15Z"/><path class="rocket-c" d="M175.9,90.27l1.18-.47L176.6,91Z"/><path class="rocket-c" d="M186.9,90.32l1.61-1.55c.22.24.45.47.68.7-.5.55-1,1.09-1.51,1.63Z"/><path class="rocket-c" d="M176.6,91c-.49.54-1,1.09-1.45,1.63q-.41-.37-.81-.78l1.56-1.56Z"/><path class="rocket-c" d="M187.68,91.1l-1,.79c.09-.52.17-1,.26-1.57Z"/><path class="rocket-c" d="M179.15,98.25l1.11-.82c-.07.56-.15,1.11-.23,1.66Z"/><path class="rocket-c" d="M177.64,99.87l1.51-1.62.88.84-1.62,1.53Z"/><path class="rocket-c" d="M190.06,99.71c.56-.48,1.12-1,1.67-1.45l.42.44c-.51.54-1,1.09-1.51,1.63Z"/><path class="rocket-c" d="M178.41,100.62l-1.62,1.54-.66-.65,1.51-1.64Z"/><path class="rocket-c" d="M188.46,101.25l1.6-1.53.58.61-1.55,1.59Z"/><path class="rocket-c" d="M176.79,102.16l-1.09.4.43-1Z"/><path class="rocket-c" d="M189.09,101.92l-1.54,1.59-.65-.66,1.57-1.59Z"/><path class="rocket-c" d="M187.55,103.51,186,105.06c-.21-.21-.43-.41-.64-.63l1.54-1.57Z"/><path class="rocket-c" d="M182.27,107.6c.5-.53,1-1.07,1.49-1.62l.74.75c-.54.49-1.08,1-1.61,1.48C182.68,108,182.47,107.81,182.27,107.6Z"/><path class="rocket-d" d="M113.87,163.26a11.29,11.29,0,0,1,10.86,11.84c-.45,6.82-4.58,10.32-11.12,10.66-6.17.33-11.44-5.17-11.44-11.35A11.56,11.56,0,0,1,113.87,163.26Z"/><path class="rocket-d" d="M150,148.39c-3.3,2.42-6.33,6.19-10,6.92-5.29,1.06-9.72-3-8.69-8.16.7-3.52,5-8.19,8.34-8.77,3-.52,6.77,3.89,10.2,6.12Z"/></svg>