<svg xmlns="http://www.w3.org/2000/svg" viewBox="0 0 948.43 843.43"><defs><style>.star-ring-a{fill:#f4f8f8;}.star-ring-b{fill:#3d94a4;}.star-ring-c{fill:#4195a1;}.star-ring-d{fill:#2e717d;}.star-ring-e{fill:#f0f285;}.star-ring-f{fill:#5e6e76;}.star-ring-g{fill:#f9f881;}.star-ring-h{fill:#8d5;}.star-ring-i{fill:#ffd13f;}.star-ring-j{fill:#8cc63f;}.star-ring-k{fill:#94d9ff;}.star-ring-l{fill:#e13542;}.star-ring-m{fill:#4d3156;}.star-ring-n{fill:#4a75e8;}</style></defs><title>未命名-1 [已復原]</title><path class="star-ring-a" d="M450.54,725.92c-1.73.64-.91,1.69-.2,2.35,1.68,1.55,3.5,2.94,5.26,4.4,8.64,4.6,17.18,9.38,25.95,13.73,3.77,1.86,8,2.82,12,4.19a42.51,42.51,0,0,0,5.39,1.17c1.65.16,2.25-.69,1.1-2.18a.84.84,0,0,1,.23-.23,46,46,0,0,1,4.31,4.53c1.73,2.39.89,4.2-2,4.09a83,83,0,0,1-9.49-1.34c-.52-.08-1-.21-1.52-.32l-2-.47.05-.05c-7.58-3.24-15.26-6.3-22.73-9.79-4.59-2.16-8.88-5-13.3-7.51-2.12-1.66-4.3-3.25-6.35-5a26,26,0,0,1-3.9-4c-.64-.87-1.25-2.41-.88-3.19s1.94-1.26,3-1.31a33,33,0,0,1,5.12.47Z"/><path class="star-ring-b" d="M454.84,752.09c-2-2.85-2.29-6.12-2.2-9.47a4.36,4.36,0,0,1,1.61.24c1.47.89,2.86,1.89,4.27,2.88,7.84,5.46,16.3,9.45,25.91,10.51a25.74,25.74,0,0,0,5.21-.46l-.05.05,1.25,1.29a19.57,19.57,0,0,1-10.22,7.14,12.58,12.58,0,0,1-2.39.23c-7.33-2.36-13.67-6.48-19.8-11A14.18,14.18,0,0,0,454.84,752.09Z"/><path class="star-ring-c" d="M493.55,750.59c-4-1.37-8.23-2.33-12-4.19-8.77-4.35-17.31-9.13-25.95-13.73l6.51-5.4c1.75,2.18,3.16,4.79,5.31,6.45,5.67,4.38,12.56,6.2,19.36,7.94,2.18.56,4.57.29,6.86.4A10.72,10.72,0,0,1,493.55,750.59Z"/><path class="star-ring-b" d="M467.32,725.31c6.09-1.77,11.71-.41,16.92,2.85A20.07,20.07,0,0,1,493,738.93a66.84,66.84,0,0,1-8.64-1.62C477.43,735.11,472.12,730.53,467.32,725.31Z"/><path class="star-ring-d" d="M467.32,725.31c4.8,5.22,10.11,9.8,17,12a66.84,66.84,0,0,0,8.64,1.62l.69,3.13c-2.29-.11-4.68.16-6.86-.4-6.8-1.74-13.69-3.56-19.36-7.94-2.15-1.66-3.56-4.27-5.31-6.45Z"/><path class="star-ring-d" d="M489.64,755.79a25.74,25.74,0,0,1-5.21.46c-9.61-1.06-18.07-5-25.91-10.51-1.41-1-2.8-2-4.27-2.88a4.36,4.36,0,0,0-1.61-.24c.32-1.38.65-2.75,1-4.13,4.42,2.52,8.71,5.35,13.3,7.51C474.38,749.49,482.06,752.55,489.64,755.79Z"/><path class="star-ring-d" d="M454.84,752.09a14.18,14.18,0,0,1,3.59,1.39c6.13,4.54,12.47,8.66,19.8,11-3.1-.06-6.31.36-9.28-.29-5.77-1.26-9.95-5.07-13.21-9.87A10.37,10.37,0,0,1,454.84,752.09Z"/><path class="star-ring-c" d="M450.61,725.44l1.21,0v1l-1.29-.55C450.56,725.76,450.59,725.6,450.61,725.44Z"/><path class="star-ring-d" d="M490.84,757.13l-1.25-1.29,2,.47Z"/><path class="star-ring-e" d="M624,195.51c-4.58-5.68-4.16-10.9-.08-16.56-6.64,2.27-11.83.91-16-5.06.41,7.36-2.84,11.56-9.64,13.62,6.33,2.4,10.8,5.81,9.84,13.66C612.31,195.18,617.22,193.34,624,195.51Z"/><path class="star-ring-f" d="M629.6,188.43a66.78,66.78,0,0,1,25.2,21.93c-5.34-10.57-13.25-18.39-24.56-22.58C630,188,629.82,188.22,629.6,188.43Z"/><path class="star-ring-f" d="M658,231.79c-3-7.5-13-20.08-18.69-23.53l18,24.11Z"/><path class="star-ring-f" d="M626.24,208.16l12.09,16.7a36.36,36.36,0,0,0-11.42-17.27C626.69,207.79,626.47,208,626.24,208.16Z"/><path class="star-ring-f" d="M637.1,205.68l-8.62-7.59c-.39.45-.78.9-1.16,1.36l9.17,6.76C636.69,206,636.89,205.85,637.1,205.68Z"/><path class="star-ring-f" d="M615.65,199.2l4.22,3.48.8-.94-4.16-3.54Z"/><path class="star-ring-f" d="M659.64,234.67,658,231.79l-.68.58,1.61,2.89Z"/><path class="star-ring-f" d="M623,205.09l2.46,2.13a5.5,5.5,0,0,1,.62-.56l-2.43-2.19Z"/><path class="star-ring-f" d="M630.24,187.78l-2.22-1-.33.59,1.92,1Z"/><path class="star-ring-f" d="M623.61,204.47l-1.49-1.42-.48.4,1.32,1.64Z"/><path class="star-ring-f" d="M625.68,186.69l.46-.45a4.31,4.31,0,0,0-.71-.3c-.08,0-.21.16-.32.25Z"/><path class="star-ring-f" d="M625.42,207.22l.83.94c.22-.19.44-.37.66-.57l-.87-.93A5.5,5.5,0,0,0,625.42,207.22Z"/><path class="star-ring-f" d="M636.49,206.21l1,.17-.41-.7C636.89,205.85,636.69,206,636.49,206.21Z"/><path class="star-ring-f" d="M639.09,226.57l.27.28c.09-.09.25-.19.25-.28s-.16-.19-.25-.29Z"/><path class="star-ring-f" d="M658.94,235.26l.71,1.06.67-.55-.68-1.1Z"/><path class="star-ring-g" d="M756.73,423.37c-16.1,0-29.14-12.24-29.2-27.42s12.87-27.49,29-27.67S786.08,380.78,786,396,772.79,423.37,756.73,423.37Zm-7.45-8.32c1.32-2.58,2.69-4.05,2.53-5.33-.13-1.11-2-2-3.1-3-1,1.25-2.64,2.43-2.82,3.79C745.75,411.52,747.5,412.79,749.28,415.05Zm-8.36-25.62c1.37-2.13,2.8-3.37,2.68-4.44s-1.83-2.37-3-2.49c-.78-.08-2.45,1.69-2.45,2.63C738.2,386.26,739.55,387.39,740.92,389.43Zm42.38,2.74c-1.95-1-3.13-2.2-4.09-2s-1.85,1.6-2.76,2.48c1,.9,2,2.34,3.19,2.53C780.45,395.27,781.53,393.68,783.3,392.17Zm-8.89,13.58a7.43,7.43,0,0,0,1.35-2c.06-.27-1-1.15-1.15-1.06a2.63,2.63,0,0,0-1.35,1.38C773.16,404.41,773.85,405,774.41,405.75Zm-1.73-7.7c.37-.79.69-1.19.7-1.6,0-.24-.58-.74-.72-.68-.4.17-.92.52-1,.87S772.15,397.34,772.68,398.05Z"/><path class="star-ring-h" d="M749.28,415.05c-1.78-2.26-3.53-3.53-3.39-4.54.18-1.36,1.81-2.54,2.82-3.79,1.1,1,3,1.89,3.1,3C752,411,750.6,412.47,749.28,415.05Z"/><path class="star-ring-h" d="M740.92,389.43c-1.37-2-2.72-3.17-2.72-4.3,0-.94,1.67-2.71,2.45-2.63,1.12.12,2.83,1.5,3,2.49S742.29,387.3,740.92,389.43Z"/><path class="star-ring-h" d="M783.3,392.17c-1.77,1.51-2.85,3.1-3.66,3-1.17-.19-2.14-1.63-3.19-2.53.91-.88,1.73-2.3,2.76-2.48S781.35,391.13,783.3,392.17Z"/><path class="star-ring-h" d="M774.41,405.75c-.56-.76-1.25-1.34-1.15-1.65a2.63,2.63,0,0,1,1.35-1.38c.2-.09,1.21.79,1.15,1.06A7.43,7.43,0,0,1,774.41,405.75Z"/><path class="star-ring-h" d="M772.68,398.05c-.53-.71-1-1.1-1-1.41s.57-.7,1-.87c.14-.06.73.44.72.68C773.37,396.86,773.05,397.26,772.68,398.05Z"/><path class="star-ring-c" d="M654.79,682.19c-2.32,5.72-6.83,9.61-11.32,13.51-.84.72-1.65,1.47-2.47,2.21L629.5,705l-5.88,2.14L618.27,702q1.15-2.91,2.29-5.82l6.73-11.44c2.27-2.53,4.33-5.3,6.87-7.51,2.83-2.45,6.09-4.39,9.17-6.56C645.82,675.84,649.1,680.22,654.79,682.19Zm-12.43-2.68a4.16,4.16,0,0,0-4.82,2.92,4,4,0,0,0,2.92,5.15,3.91,3.91,0,0,0,5-2.79A4.26,4.26,0,0,0,642.36,679.51Zm-7.76,16.42.35-1.38c-.92-1.08-1.65-2.61-2.82-3.14a2.53,2.53,0,0,0-3.78,2.15c-.05,1.23,1,3.26,2.06,3.6S633.18,696.41,634.6,695.93Z"/><path class="star-ring-e" d="M654.79,682.19c-5.69-2-9-6.35-11.46-11.52,3.41-2.4,7.26-2.71,11.18-2a3.54,3.54,0,0,1,2.22,2.33A15,15,0,0,1,654.79,682.19Z"/><path class="star-ring-e" d="M627.29,684.74l-6.73,11.44c-2.24.42-4.62.49-6.68,1.35-1.85.77-3.06.37-3.74-1.08a3.18,3.18,0,0,1,.76-2.87,69.37,69.37,0,0,1,9.61-7.73C622.32,684.74,625,685.06,627.29,684.74Z"/><path class="star-ring-e" d="M629.5,705l11.5-7.11c-.4,2.37-.18,5.11-1.33,7a58.63,58.63,0,0,1-7.35,9.06,3.58,3.58,0,0,1-3.12.89c-1.62-.66-1.86-2.18-.85-3.75a5.38,5.38,0,0,0,.45-1.11l.24-.65C629.19,707.93,629.35,706.48,629.5,705Z"/><path class="star-ring-e" d="M618.27,702l5.35,5.16c-.21,1.5-.41,3-.72,5.19l-9.71-9.59Z"/><path class="star-ring-f" d="M610.55,718.34l6.25-7.53.87.76-6.92,7.08Z"/><path class="star-ring-f" d="M608,715.72l6.26-7.53.87.75L608.16,716C608.1,715.92,608,715.82,608,715.72Z"/><path class="star-ring-f" d="M618.43,714.75c-1.29,1.69-2.59,3.38-3.88,5.08l-.88-.77,4.56-4.63A3.45,3.45,0,0,1,618.43,714.75Z"/><path class="star-ring-f" d="M612.73,707.7l-1.25,1.56-.49-.38,1.27-1.55Z"/><path class="star-ring-f" d="M610.09,719.2l-1.55,1.55-.21-.31,1.55-1.56Z"/><path class="star-ring-f" d="M618.23,714.43l.85-.66a1.4,1.4,0,0,1,.16.23c-.26.26-.54.5-.81.75A3.45,3.45,0,0,0,618.23,714.43Z"/><path class="star-ring-f" d="M610.75,718.65l-.66.54-.21-.31.67-.54Z"/><path class="star-ring-f" d="M629,709.38l-.24.65a4.1,4.1,0,0,1,0-.5C628.83,709.47,629,709.43,629,709.38Z"/><path class="star-ring-a" d="M642.36,679.51a4.26,4.26,0,0,1,3.07,5.28,3.91,3.91,0,0,1-5,2.79,4,4,0,0,1-2.92-5.15A4.16,4.16,0,0,1,642.36,679.51Z"/><path class="star-ring-a" d="M632.35,691a3.58,3.58,0,0,1,2.58,4.43,3.3,3.3,0,0,1-4.18,2.35,3.39,3.39,0,0,1-2.45-4.33A3.49,3.49,0,0,1,632.35,691Z"/><path class="star-ring-i" d="M228.51,234.5s.56,26.37-23,26.37c0,0,24.13-2.8,23,24.13,0,0,1.68-25.25,22.44-25.25C251,259.75,228.51,262,228.51,234.5Z"/><path class="star-ring-i" d="M417.89,144.5s.28,13.06-11.39,13.06c0,0,11.94-1.39,11.39,11.94,0,0,.83-12.5,11.11-12.5C429,157,417.89,158.11,417.89,144.5Z"/><path class="star-ring-i" d="M494.89,144.5s.28,13.06-11.39,13.06c0,0,11.94-1.39,11.39,11.94,0,0,.83-12.5,11.11-12.5C506,157,494.89,158.11,494.89,144.5Z"/><path class="star-ring-i" d="M699.89,263.5s.28,13.06-11.39,13.06c0,0,11.94-1.39,11.39,11.94,0,0,.83-12.5,11.11-12.5C711,276,699.89,277.11,699.89,263.5Z"/><path class="star-ring-i" d="M737.89,318.5s.28,13.06-11.39,13.06c0,0,11.94-1.39,11.39,11.94,0,0,.83-12.5,11.11-12.5C749,331,737.89,332.11,737.89,318.5Z"/><path class="star-ring-i" d="M188.44,330.5s.39,18.28-15.94,18.28c0,0,16.72-1.95,15.94,16.72,0,0,1.17-17.5,15.56-17.5C204,348,188.44,349.56,188.44,330.5Z"/><path class="star-ring-i" d="M176.44,501.5s.39,18.28-15.94,18.28c0,0,16.72-1.95,15.94,16.72,0,0,1.17-17.5,15.56-17.5C192,519,176.44,520.56,176.44,501.5Z"/><path class="star-ring-i" d="M205.44,585.5s.39,18.28-15.94,18.28c0,0,16.72-1.95,15.94,16.72,0,0,1.17-17.5,15.56-17.5C221,603,205.44,604.56,205.44,585.5Z"/><path class="star-ring-i" d="M322.44,694.5s.39,18.28-15.94,18.28c0,0,16.72-1.95,15.94,16.72,0,0,1.17-17.5,15.56-17.5C338,712,322.44,713.56,322.44,694.5Z"/><path class="star-ring-i" d="M402.44,725.5s.39,18.28-15.94,18.28c0,0,16.72-1.95,15.94,16.72,0,0,1.17-17.5,15.56-17.5C418,743,402.44,744.56,402.44,725.5Z"/><path class="star-ring-i" d="M562.44,720.5s.39,18.28-15.94,18.28c0,0,16.72-1.95,15.94,16.72,0,0,1.17-17.5,15.56-17.5C578,738,562.44,739.56,562.44,720.5Z"/><path class="star-ring-i" d="M699.44,611.5s.39,18.28-15.94,18.28c0,0,16.72-1.95,15.94,16.72,0,0,1.17-17.5,15.56-17.5C715,629,699.44,630.56,699.44,611.5Z"/><path class="star-ring-i" d="M737.44,550.5s.39,18.28-15.94,18.28c0,0,16.72-1.95,15.94,16.72,0,0,1.17-17.5,15.56-17.5C753,568,737.44,569.56,737.44,550.5Z"/><path class="star-ring-i" d="M757.44,477.5s.39,18.28-15.94,18.28c0,0,16.72-1.95,15.94,16.72,0,0,1.17-17.5,15.56-17.5C773,495,757.44,496.56,757.44,477.5Z"/><circle class="star-ring-j" cx="264.5" cy="670.5" r="23.5"/><path class="star-ring-k" d="M241,670.41l-.61.49,0,0a40.22,40.22,0,0,0-3.46,5.21,15,15,0,0,0-1.22,2.7,4.66,4.66,0,0,0-.28,2.41c.17.58.43.81,1.08,1.08a7.48,7.48,0,0,0,2.4.42,28.6,28.6,0,0,0,5.8-.46c8-1.37,16-3.87,23.95-6.25,4-1.2,7.9-2.49,11.75-3.92a69.11,69.11,0,0,0,11-5,15.27,15.27,0,0,0,4.2-3.39,2.61,2.61,0,0,0,.65-1.6,2.38,2.38,0,0,0-1-1.59,14.19,14.19,0,0,0-5.28-2.33,51.28,51.28,0,0,0-6.19-1.15,31.86,31.86,0,0,1,6.42-.49,18.63,18.63,0,0,1,3.3.37,11.49,11.49,0,0,1,3.36,1.16,6.06,6.06,0,0,1,1.61,1.23,3.93,3.93,0,0,1,.68.91l.29.52c.08.19.13.39.2.59a5,5,0,0,1,.08,2.39,7.15,7.15,0,0,1-.74,2,12.42,12.42,0,0,1-2.28,3,16,16,0,0,1-1.29,1.2A17.11,17.11,0,0,1,294,671a43.17,43.17,0,0,1-5.63,3.56c-1.93,1-3.9,2-5.89,2.83a122.85,122.85,0,0,1-12.12,4.39c-4.07,1.22-8.17,2.38-12.36,3.3A83.64,83.64,0,0,1,245.17,687a28.11,28.11,0,0,1-6.81-.29,10.67,10.67,0,0,1-3.64-1.3l-.89-.68a11.67,11.67,0,0,1-.77-.94,7.11,7.11,0,0,1-.51-1.12,9.34,9.34,0,0,1-.19-1.16,7.27,7.27,0,0,1,1.08-3.69,16,16,0,0,1,2-2.75,30.11,30.11,0,0,1,4.79-4.33l0,0Z"/><path class="star-ring-l" d="M181.53,447.82c-8.54.53-14.15-2.85-18.05-12.17-2.5,9.5-6.21,15.19-15.58,15,6.52,5.22,11.59,10.31,8.16,19.6,7-5.08,13.63-6.51,21.29-2.17C174.42,460.3,174.81,453.73,181.53,447.82Z"/><path class="star-ring-m" d="M155,444.5c-6.07-17.27-6.93-33.36-1.84-50.47C144.83,400.59,145.09,435.87,155,444.5Z"/><path class="star-ring-m" d="M181.33,393.35c-8.27,15-11.34,30.94-7.73,47.94A137,137,0,0,1,181.33,393.35Z"/><path class="star-ring-m" d="M162.77,405.15c-3.05,8.48-.38,16.85-.92,25.28l3,0-1.38-25.34Z"/><path class="star-ring-n" d="M344.14,185.89,338,194q-7.71,7.75-15.42,15.54c-7.6,4.8-15.1,9.8-22.87,14.31-2.43,1.4-5.62,1.46-8.46,2.14-1-9.77-5.36-17.53-13.46-23.14,6.1-7.73,14.36-12.45,23-16.68,1.77-.87,3.52-1.78,5.27-2.67l21-6.66,10.38-2.07ZM301.72,199a7.34,7.34,0,0,0-8.93,5.08,7.2,7.2,0,0,0,5.31,8.75c4.09.79,7.17-.73,8.5-4.87A7.17,7.17,0,0,0,301.72,199Zm24.53-3.64.53-2.41c-1.78-1.91-3.46-5.21-5.36-5.34-2.14-.15-5.51,2.06-6.49,4.13a4.45,4.45,0,0,0,4.11,6.36C321.4,198.19,323.84,196.33,326.25,195.34Z"/><path class="star-ring-l" d="M277.83,202.85c8.1,5.61,12.5,13.37,13.46,23.14-6.44,2.73-12.75,1.39-18.59-1.47-1.47-.71-2.75-4.57-2.13-6.27C272.48,212.93,275.34,208,277.83,202.85Z"/><path class="star-ring-l" d="M322.62,209.54Q330.33,201.77,338,194a111.4,111.4,0,0,1,11.73.66,9,9,0,0,1,5.11,3c.41.5-1.1,3.65-2.39,4.3-6.58,3.34-13.21,6.76-20.18,9.08C329.56,212,325.88,210.13,322.62,209.54Z"/><path class="star-ring-l" d="M327.07,176.84l-21,6.66c1.23-3.3,1.57-7.5,3.85-9.72,5.17-5,11.2-9.19,17.1-13.4,1-.71,4-.46,4.43.27a7.61,7.61,0,0,1,.62,5.56C330.79,169.88,328.79,173.31,327.07,176.84Z"/><path class="star-ring-l" d="M344.14,185.89l-6.69-11.12c.86-2,1.72-4,2.6-6.08,3.54,6.13,6.75,11.68,10.1,17.5Z"/><path class="star-ring-f" d="M361.18,169.25l8.88-6.52c.36.54.71,1.08,1.06,1.62l-9.54,5.44Z"/><path class="star-ring-f" d="M364.53,173.38l-7.17,4.53-.26-.42,7.11-4.54Z"/><path class="star-ring-f" d="M350.34,164.82l-2.64,2-.66-1,2.92-1.56Z"/><path class="star-ring-f" d="M367.51,159.77l-2,1.29-.49-.74,2-1.29Z"/><path class="star-ring-f" d="M364.21,173c.5-.36,1-.72,1.51-1.06a2.94,2.94,0,0,1,.31.36l-1.5,1.13Z"/><path class="star-ring-f" d="M359.7,170.84l1.48-1.59.4.54-1.69,1.39Z"/><path class="star-ring-f" d="M356.16,178.6l-1,.6.73-1Z"/><path class="star-ring-f" d="M352.72,175.62l-.69.12.4-.59Z"/><path class="star-ring-f" d="M355.93,178.23l1.17-.74.26.42-1.2.69Z"/><path class="star-ring-f" d="M353.6,174.38l1.23-.71q.15.26.3.48l-1.19.8Z"/><path class="star-ring-f" d="M357.55,159.09l.67-.12-.38.58Z"/><path class="star-ring-f" d="M356.32,159.79l1.23-.7.29.46-1.13.85Z"/><path class="star-ring-f" d="M355.13,160.55l1.19-.76.39.61-1.22.71Z"/><path class="star-ring-f" d="M355.49,161.11l-1.23.71-.32-.52,1.19-.75Z"/><path class="star-ring-f" d="M361.61,163.09l.7-.15-.47.56Z"/><path class="star-ring-f" d="M354.26,161.82l-.81.11.49-.63Z"/><path class="star-ring-f" d="M361.84,163.5l-1.17.79c-.1-.19-.21-.37-.32-.56l1.26-.64Z"/><path class="star-ring-f" d="M360.67,164.29l-1.19.74-.31-.53,1.18-.77C360.46,163.92,360.57,164.1,360.67,164.29Z"/><path class="star-ring-f" d="M351.16,163.49l.8-.11-.48.66Z"/><path class="star-ring-f" d="M357.94,165.2l1.23-.7.31.53-1.18.77Z"/><path class="star-ring-f" d="M351.48,164l-1.14.78-.38-.6,1.2-.73Z"/><path class="star-ring-f" d="M358.3,165.8l-.76.33c.13-.31.26-.61.4-.92Z"/><path class="star-ring-f" d="M351.94,168.9l.81-.33c-.13.33-.26.66-.4,1C352.22,169.34,352.08,169.12,351.94,168.9Z"/><path class="star-ring-f" d="M350.76,169.67l1.19-.77.4.66-1.23.69Z"/><path class="star-ring-f" d="M358.44,171.48l1.26-.64.19.34c-.4.25-.79.51-1.18.77Z"/><path class="star-ring-f" d="M351.12,170.25l-1.23.7-.31-.5,1.18-.78Z"/><path class="star-ring-f" d="M357.22,172.19l1.23-.71c.08.16.17.31.26.47l-1.2.74C357.41,172.52,357.32,172.35,357.22,172.19Z"/><path class="star-ring-f" d="M349.89,171l-.74.09.43-.59Z"/><path class="star-ring-f" d="M357.51,172.69l-1.2.75c-.09-.17-.19-.34-.29-.51l1.2-.74C357.32,172.35,357.41,172.52,357.51,172.69Z"/><path class="star-ring-f" d="M356.31,173.44l-1.18.71q-.15-.22-.3-.48l1.19-.73C356.12,173.1,356.22,173.27,356.31,173.44Z"/><path class="star-ring-f" d="M352.43,175.15l1.17-.77.34.57-1.22.67Z"/><path class="star-ring-a" d="M301.72,199a7.17,7.17,0,0,1,4.88,9c-1.33,4.14-4.41,5.66-8.5,4.87a7.2,7.2,0,0,1-5.31-8.75A7.34,7.34,0,0,1,301.72,199Z"/><path class="star-ring-a" d="M326.25,195.34c-2.41,1-4.85,2.85-7.21,2.74a4.45,4.45,0,0,1-4.11-6.36c1-2.07,4.35-4.28,6.49-4.13,1.9.13,3.58,3.43,5.36,5.34Z"/></svg>