<svg xmlns="http://www.w3.org/2000/svg" viewBox="0 0 1080 1080"><defs><style>.a{fill:#f2f2f2;}.b,.f{fill:none;stroke:#e3e3e3;stroke-width:13px;}.b{stroke-linecap:round;stroke-linejoin:round;}.c{fill:#f3b755;}.d{fill:#699ff1;}.e{fill:#93c586;}.f{stroke-miterlimit:10;}.g{fill:#e3e3e3;}</style></defs><title>DefaultActivityImage</title><rect class="a" width="1079" height="1080"/><line class="b" x1="222" y1="596" x2="164" y2="669"/><line class="b" x1="235" y1="625" x2="190" y2="677"/><path class="c" d="M1263,590s-150-46-222,98S900,814,836,845s-108,309-102,344,373,345,373,345l338-50Z"/><path class="c" d="M744,533.41C742,427.94,655,344,549.51,345.94S360.11,434.92,362,540.4a190.34,190.34,0,0,0,57.16,132.77q5.51-17.76,13.72-42a24,24,0,0,1-6-13.23q-2.58-18.65,20.42-27.24,20.79-53.1,54.07-123c30.21-63.5,45.27-88.93,54.64-90.22,12.75-1.77,20.33,10.43,27.35,26.67l94.35,216.34,15.7,36.56q1.68,3.09,3.09,5.83A190.28,190.28,0,0,0,744,533.41Z"/><path class="c" d="M643.63,673.69c7.7-7.49,9.07-19.1,2.11-29.68-11-16.71-22.21-33.32-33.47-49.9-1.2-1.77-2.41-3.54-3.61-5.32Q603.32,580.94,598,573c-4.63-6.81-11.89-7.41-16.8-1.51-4.38,5.26-8.6,10.67-12.68,16.14-10.21,13.7-11.92,16-26.21,6.75-16.75-10.78-23.44-2.09-31.91,6.43L508.22,603l18.72,12.82,4.58,3.12a5.16,5.16,0,1,1-3.75,6.26,4,4,0,0,1-.11-.58l-8.84-6-15.31-10.45c-3.77,4.23-7.43,8.69-11,13.3l6.05,4.13,16.12,11a5.09,5.09,0,0,1,4.14.71,5.16,5.16,0,1,1-8,4.94l-20.34-13.88-2.14-1.43c-.71,1-1.46,2-2.19,3L484,632.77q-1.74,2.37-3.45,4.79l1.86,1.27,18.24,12.44a5.16,5.16,0,1,1-3.76,6.26c0-.2-.08-.39-.11-.59l-16.3-11.16-3.91-2.66c-11.79,16.66-23.41,33.68-36.31,48-1.8,2-3.63,3.92-5.49,5.8-2.27,2.3-4.13,6.19-3.94,9.32.8,13.46,2.35,13.34,14.08,18.11a40.83,40.83,0,0,0,9.59,1.94A38.11,38.11,0,0,0,467.57,725l25.2-6.84q69.45-18.84,138.83-37.81A27.48,27.48,0,0,0,643.63,673.69Z"/><path class="c" d="M600.52,699.59c-6.75,1.74-10.17,4.21-8.9,6.25s6.53,2.33,13.21.72c6.2-1.52,12.36-3.11,18.55-4.68,6.38-1.62,12.8-3.18,19.14-4.86,6.54-1.72,9.9-4.28,8.48-6.28s-6.42-2.24-12.79-.65Q619.31,694.79,600.52,699.59Z"/><path class="c" d="M649.67,701.65l-.39.1-94.57,24.61c-1.86.48-3.49,1-4.88,1.5-4.45,1.65-6.49,3.41-5.62,4.94,1.16,2,6.47,2.06,14.27.05q20-5.18,39.9-10.38l6.14-1.59,1.25-.33,47.28-12.3c8.29-2.14,12.13-4.55,10.71-6.59S657.3,699.72,649.67,701.65Z"/><path class="c" d="M589.12,533.55l3.29-1.13s-16.73-52.56-21.56-70.73c-1.07-4-6.11-20.4-10.21-19.77-6.3,1-11.47,11.86-14.16,18.78C536.49,486.43,505.92,562,505.92,562l5.64-1.93Z"/><path class="d" d="M339-100c0,7,80,341,177,303s135-10,161,4,80-1,150-58,136,13,190,11,132,12,141-56S1374-91,1374-91Z"/><circle class="c" cx="-38.5" cy="63.5" r="264.5"/><circle class="e" cx="0.5" cy="339.5" r="120.5"/><rect class="f" x="252.5" y="184" width="49.5" height="64"/><path class="d" d="M-102,649S82,737,173,806s189,81,226,41,167-24,154,155-43,223-43,223l-806,47Z"/><ellipse class="e" cx="799" cy="1152.5" rx="134" ry="231.5"/><ellipse class="c" cx="97.53" cy="1070.5" rx="154.56" ry="172.5"/><line class="b" x1="173" y1="572" x2="128" y2="621"/><line class="b" x1="207" y1="576" x2="139" y2="651"/><circle class="g" cx="915.5" cy="649.5" r="17.5"/><ellipse class="g" cx="910.62" cy="267.27" rx="6.12" ry="5.77"/><ellipse class="g" cx="928.11" cy="267.27" rx="6.12" ry="5.77"/><ellipse class="g" cx="945.61" cy="267.27" rx="6.12" ry="5.77"/><ellipse class="g" cx="963.1" cy="267.27" rx="6.12" ry="5.77"/><ellipse class="g" cx="980.59" cy="267.27" rx="6.12" ry="5.77"/><ellipse class="g" cx="998.08" cy="267.27" rx="6.12" ry="5.77"/><ellipse class="g" cx="1015.58" cy="267.27" rx="6.12" ry="5.77"/><ellipse class="g" cx="910.62" cy="284.77" rx="6.12" ry="5.77"/><ellipse class="g" cx="928.11" cy="284.77" rx="6.12" ry="5.77"/><ellipse class="g" cx="945.61" cy="284.77" rx="6.12" ry="5.77"/><ellipse class="g" cx="963.1" cy="284.77" rx="6.12" ry="5.77"/><ellipse class="g" cx="980.59" cy="284.77" rx="6.12" ry="5.77"/><ellipse class="g" cx="998.08" cy="284.77" rx="6.12" ry="5.77"/><ellipse class="g" cx="1015.58" cy="284.77" rx="6.12" ry="5.77"/><ellipse class="g" cx="910.62" cy="302.26" rx="6.12" ry="5.77"/><ellipse class="g" cx="928.11" cy="302.26" rx="6.12" ry="5.77"/><ellipse class="g" cx="945.61" cy="302.26" rx="6.12" ry="5.77"/><ellipse class="g" cx="963.1" cy="302.26" rx="6.12" ry="5.77"/><ellipse class="g" cx="980.59" cy="302.26" rx="6.12" ry="5.77"/><ellipse class="g" cx="998.08" cy="302.26" rx="6.12" ry="5.77"/><ellipse class="g" cx="1015.58" cy="302.26" rx="6.12" ry="5.77"/><ellipse class="g" cx="910.62" cy="319.75" rx="6.12" ry="5.77"/><ellipse class="g" cx="928.11" cy="319.75" rx="6.12" ry="5.77"/><ellipse class="g" cx="945.61" cy="319.75" rx="6.12" ry="5.77"/><ellipse class="g" cx="963.1" cy="319.75" rx="6.12" ry="5.77"/><ellipse class="g" cx="980.59" cy="319.75" rx="6.12" ry="5.77"/><ellipse class="g" cx="998.08" cy="319.75" rx="6.12" ry="5.77"/><ellipse class="g" cx="1015.58" cy="319.75" rx="6.12" ry="5.77"/><ellipse class="g" cx="910.62" cy="337.24" rx="6.12" ry="5.77"/><ellipse class="g" cx="928.11" cy="337.24" rx="6.12" ry="5.77"/><ellipse class="g" cx="945.61" cy="337.24" rx="6.12" ry="5.77"/><ellipse class="g" cx="963.1" cy="337.24" rx="6.12" ry="5.77"/><ellipse class="g" cx="980.59" cy="337.24" rx="6.12" ry="5.77"/><ellipse class="g" cx="998.08" cy="337.24" rx="6.12" ry="5.77"/><ellipse class="g" cx="1015.58" cy="337.24" rx="6.12" ry="5.77"/><ellipse class="g" cx="910.62" cy="354.73" rx="6.12" ry="5.77"/><ellipse class="g" cx="928.11" cy="354.73" rx="6.12" ry="5.77"/><ellipse class="g" cx="945.61" cy="354.73" rx="6.12" ry="5.77"/><ellipse class="g" cx="963.1" cy="354.73" rx="6.12" ry="5.77"/><ellipse class="g" cx="980.59" cy="354.73" rx="6.12" ry="5.77"/><ellipse class="g" cx="998.08" cy="354.73" rx="6.12" ry="5.77"/><ellipse class="g" cx="1015.58" cy="354.73" rx="6.12" ry="5.77"/><ellipse class="g" cx="910.62" cy="372.23" rx="6.12" ry="5.77"/><ellipse class="g" cx="928.11" cy="372.23" rx="6.12" ry="5.77"/><ellipse class="g" cx="945.61" cy="372.23" rx="6.12" ry="5.77"/><ellipse class="g" cx="963.1" cy="372.23" rx="6.12" ry="5.77"/><ellipse class="g" cx="980.59" cy="372.23" rx="6.12" ry="5.77"/><ellipse class="g" cx="998.08" cy="372.23" rx="6.12" ry="5.77"/><ellipse class="g" cx="1015.58" cy="372.23" rx="6.12" ry="5.77"/></svg>